<?xml version="1.0" encoding="utf-8"?>
<!-- Generator: Adobe Illustrator 21.0.2, SVG Export Plug-In . SVG Version: 6.00 Build 0)  -->
<svg version="1.1" id="Layer_1" xmlns="http://www.w3.org/2000/svg" xmlns:xlink="http://www.w3.org/1999/xlink" x="0px" y="0px"
	 viewBox="0 0 288 288" style="enable-background:new 0 0 288 288;" xml:space="preserve">
<style type="text/css">
	.st0{display:none;}
	.st1{display:inline;}
	.st2{fill:#FFFFFF;}
	.st3{fill:#04AA51;}
	.st4{fill:#6AE29E;}
	.st5{fill:#9EB7A9;}
</style>
<g class="st0">
	<g class="st1">
		<path class="st2" d="M135.7,281.8l-2.7-0.1c-0.3,0-0.5-0.3-0.5-0.6c0-0.3,0.3-0.5,0.6-0.5l2.7,0.1c0.3,0,0.5,0.3,0.5,0.6
			C136.3,281.5,136,281.8,135.7,281.8z"/>
	</g>
	<g class="st1">
		<path class="st2" d="M119.7,246.7l6.9-1.6c0.8-0.2,1.6,0.3,1.8,1.1s-0.3,1.6-1.1,1.8l-6.9,1.6c-0.8,0.2-1.6-0.3-1.8-1.1
			C118.4,247.7,118.9,246.9,119.7,246.7z"/>
	</g>
	<g class="st1">
		<path class="st2" d="M9.3,132l1.7-2.3c0.2-0.3,0.6-0.3,0.8-0.1c0.3,0.2,0.3,0.6,0.1,0.8l-1.7,2.3c-0.2,0.3-0.6,0.3-0.8,0.1
			C9.2,132.6,9.1,132.2,9.3,132z"/>
	</g>
	<g class="st1">
		<path class="st2" d="M87.2,10.1l-1.3-2.5c-0.2-0.3-0.1-0.6,0.2-0.8c0.3-0.2,0.6-0.1,0.8,0.2l1.4,2.5c0.2,0.3,0.1,0.6-0.2,0.8
			C87.7,10.5,87.4,10.4,87.2,10.1z"/>
	</g>
	<g class="st1">
		<path class="st2" d="M122.9,47l-0.8,9.7c-0.1,1.1-1.1,1.9-2.2,1.8c-1.1-0.1-1.9-1.1-1.8-2.2l0.8-9.7c0.1-1.1,1.1-1.9,2.2-1.8
			C122.1,44.9,123,45.9,122.9,47z"/>
	</g>
	<g class="st1">
		<path class="st2" d="M168.1,12.4l-7.2,5.6c-0.8,0.6-2,0.5-2.6-0.3s-0.5-2,0.3-2.6l7.2-5.6c0.8-0.6,2-0.5,2.6,0.3
			C169.1,10.5,168.9,11.7,168.1,12.4z"/>
	</g>
	<g class="st1">
		<path class="st2" d="M25.4,76.5l1.4,2.9c0.2,0.3,0,0.7-0.3,0.9c-0.3,0.2-0.7,0-0.9-0.3l-1.4-2.9c-0.2-0.3,0-0.7,0.3-0.9
			C24.8,76,25.2,76.2,25.4,76.5z"/>
	</g>
	<g class="st1">
		<path class="st2" d="M133.3,192.5l-2.8,6.4c-0.3,0.7-1.2,1.1-1.9,0.8s-1.1-1.2-0.8-1.9l2.8-6.4c0.3-0.7,1.2-1.1,1.9-0.8
			C133.3,190.9,133.6,191.8,133.3,192.5z"/>
	</g>
	<g class="st1">
		<path class="st2" d="M100.5,46l-0.3,2.6c0,0.3-0.3,0.5-0.6,0.5c-0.3,0-0.5-0.3-0.5-0.6l0.3-2.6c0-0.3,0.3-0.5,0.6-0.5
			C100.3,45.4,100.5,45.7,100.5,46z"/>
	</g>
	<g class="st1">
		<path class="st2" d="M149.6,174.7l5.1,6.6c0.6,0.7,0.5,1.8-0.3,2.4c-0.7,0.6-1.8,0.5-2.4-0.3l-5.1-6.6c-0.6-0.7-0.5-1.8,0.3-2.4
			C147.9,173.8,149,173.9,149.6,174.7z"/>
	</g>
	<g class="st1">
		<path class="st2" d="M281.5,241.7l-5.8-1.5c-0.7-0.2-1.1-0.8-0.9-1.5s0.8-1.1,1.5-0.9l5.8,1.5c0.7,0.2,1.1,0.8,0.9,1.5
			C282.8,241.4,282.2,241.9,281.5,241.7z"/>
	</g>
	<g class="st1">
		<path class="st2" d="M65,155l-5.3-4c-0.6-0.5-0.7-1.3-0.3-1.9c0.5-0.6,1.3-0.7,1.9-0.3l5.3,4c0.6,0.5,0.7,1.3,0.3,1.9
			C66.4,155.3,65.6,155.4,65,155z"/>
	</g>
	<g class="st1">
		<path class="st2" d="M115.1,147.5l-0.9-2.5c-0.1-0.3,0.1-0.6,0.3-0.7c0.3-0.1,0.6,0.1,0.7,0.3l0.9,2.5c0.1,0.3-0.1,0.6-0.3,0.7
			C115.5,147.9,115.2,147.8,115.1,147.5z"/>
	</g>
	<g class="st1">
		<path class="st2" d="M200.1,110.4l1.6,2.1c0.2,0.2,0.1,0.6-0.1,0.7c-0.2,0.2-0.6,0.1-0.7-0.1l-1.6-2.1c-0.2-0.2-0.1-0.6,0.1-0.7
			C199.6,110.1,199.9,110.2,200.1,110.4z"/>
	</g>
	<g class="st1">
		<path class="st2" d="M54.4,16.4l5.2-7.8c0.6-0.9,1.8-1.1,2.7-0.5s1.1,1.8,0.5,2.7l-5.2,7.8c-0.6,0.9-1.8,1.1-2.7,0.5
			C54,18.5,53.8,17.3,54.4,16.4z"/>
	</g>
	<g class="st1">
		<path class="st2" d="M161.4,84.4l-2.9-0.6c-0.3-0.1-0.5-0.4-0.5-0.7c0.1-0.3,0.4-0.5,0.7-0.5l2.9,0.6c0.3,0.1,0.5,0.4,0.5,0.7
			C162.1,84.2,161.8,84.4,161.4,84.4z"/>
	</g>
	<g class="st1">
		<path class="st2" d="M66.5,202.2l2,6.8c0.2,0.8-0.2,1.6-1,1.8s-1.6-0.2-1.8-1l-2-6.8c-0.2-0.8,0.2-1.6,1-1.8
			C65.4,201,66.2,201.5,66.5,202.2z"/>
	</g>
	<g class="st1">
		<path class="st2" d="M259.2,277.9l7.5-2.2c0.9-0.3,1.7,0.2,2,1.1s-0.2,1.7-1.1,2l-7.5,2.2c-0.9,0.3-1.7-0.2-2-1.1
			C257.9,279.1,258.4,278.2,259.2,277.9z"/>
	</g>
	<g class="st1">
		<path class="st2" d="M226.2,91.8l-7.7-4.9c-0.9-0.6-1.1-1.7-0.6-2.6c0.6-0.9,1.7-1.1,2.6-0.6l7.7,4.9c0.9,0.6,1.1,1.7,0.6,2.6
			C228.2,92.1,227,92.3,226.2,91.8z"/>
	</g>
	<g class="st1">
		<path class="st2" d="M199.4,158.9l-5.3-2.9c-0.6-0.3-0.8-1.1-0.5-1.7c0.3-0.6,1.1-0.8,1.7-0.5l5.3,2.9c0.6,0.3,0.8,1.1,0.5,1.7
			C200.8,159,200,159.2,199.4,158.9z"/>
	</g>
	<g class="st1">
		<path class="st2" d="M114.9,117.3l0.9,3.1c0.1,0.4-0.1,0.7-0.5,0.8c-0.4,0.1-0.7-0.1-0.8-0.5l-0.9-3.1c-0.1-0.4,0.1-0.7,0.5-0.8
			S114.8,116.9,114.9,117.3z"/>
	</g>
	<g class="st1">
		<path class="st2" d="M105.4,233.4l2.6,7c0.3,0.8-0.1,1.7-0.9,2s-1.7-0.1-2-0.9l-2.6-7c-0.3-0.8,0.1-1.7,0.9-2
			C104.2,232.2,105.1,232.6,105.4,233.4z"/>
	</g>
	<g class="st1">
		<path class="st2" d="M114.7,213.3l3.5,2c0.4,0.2,0.5,0.7,0.3,1.1c-0.2,0.4-0.7,0.5-1.1,0.3l-3.5-2c-0.4-0.2-0.5-0.7-0.3-1.1
			C113.8,213.2,114.3,213,114.7,213.3z"/>
	</g>
	<g class="st1">
		<path class="st2" d="M80.3,94.4l-2.1,2.4c-0.2,0.3-0.7,0.3-0.9,0.1C77,96.7,77,96.2,77.2,96l2.1-2.4c0.2-0.3,0.7-0.3,0.9-0.1
			C80.5,93.7,80.6,94.1,80.3,94.4z"/>
	</g>
	<g class="st1">
		<path class="st2" d="M213.8,66.3l3.5-2.3c0.4-0.3,0.9-0.1,1.2,0.3s0.1,0.9-0.3,1.2l-3.5,2.3c-0.4,0.3-0.9,0.1-1.2-0.3
			C213.3,67.1,213.4,66.5,213.8,66.3z"/>
	</g>
	<g class="st1">
		<path class="st2" d="M234.5,204.2l-1.4-6.3c-0.2-0.7,0.3-1.4,1-1.6c0.7-0.2,1.4,0.3,1.6,1l1.4,6.3c0.2,0.7-0.3,1.4-1,1.6
			C235.4,205.4,234.7,204.9,234.5,204.2z"/>
	</g>
	<g class="st1">
		<path class="st2" d="M252.5,237.3l6.6-2.3c0.7-0.3,1.6,0.1,1.8,0.9c0.3,0.7-0.1,1.6-0.9,1.8l-6.6,2.3c-0.7,0.3-1.6-0.1-1.8-0.9
			C251.4,238.4,251.8,237.5,252.5,237.3z"/>
	</g>
	<g class="st1">
		<path class="st2" d="M269.4,173.5l-5-0.9c-0.6-0.1-0.9-0.6-0.9-1.2c0.1-0.6,0.6-0.9,1.2-0.9l5,0.9c0.6,0.1,0.9,0.6,0.9,1.2
			C270.5,173.2,269.9,173.6,269.4,173.5z"/>
	</g>
	<g class="st1">
		<path class="st2" d="M175.8,33.1l3.3-5.3c0.4-0.6,1.2-0.8,1.8-0.4s0.8,1.2,0.4,1.8l-3.3,5.3c-0.4,0.6-1.2,0.8-1.8,0.4
			C175.6,34.5,175.4,33.7,175.8,33.1z"/>
	</g>
	<g class="st1">
		<path class="st2" d="M148,53.6l1.3-6.4c0.1-0.7,0.9-1.2,1.6-1.1c0.7,0.1,1.2,0.9,1.1,1.6l-1.3,6.4c-0.1,0.7-0.9,1.2-1.6,1.1
			C148.3,55,147.8,54.3,148,53.6z"/>
	</g>
	<g class="st1">
		<path class="st2" d="M279.9,260.1l0.6,2.5c0.1,0.3-0.1,0.6-0.4,0.7s-0.6-0.1-0.7-0.4l-0.6-2.5c-0.1-0.3,0.1-0.6,0.4-0.7
			C279.6,259.7,279.9,259.8,279.9,260.1z"/>
	</g>
	<g class="st1">
		<path class="st2" d="M249.3,73.6l-8.7,1.2c-1,0.1-1.9-0.6-2-1.5c-0.1-1,0.6-1.9,1.5-2l8.7-1.2c1-0.1,1.9,0.6,2,1.5
			C251,72.6,250.3,73.5,249.3,73.6z"/>
	</g>
	<g class="st1">
		<path class="st2" d="M272.2,8.1l-5.3,4.3c-0.6,0.5-1.5,0.4-2-0.2c-0.5-0.6-0.4-1.5,0.2-2l5.3-4.3c0.6-0.5,1.5-0.4,2,0.2
			C272.9,6.7,272.9,7.6,272.2,8.1z"/>
	</g>
	<g class="st1">
		<path class="st2" d="M53.1,178.2l2.6,1.3c0.3,0.2,0.4,0.5,0.3,0.8c-0.2,0.3-0.5,0.4-0.8,0.3l-2.6-1.3c-0.3-0.2-0.4-0.5-0.3-0.8
			C52.4,178.1,52.8,178,53.1,178.2z"/>
	</g>
	<g class="st1">
		<path class="st2" d="M169.3,64.8l4.2-3.4c0.5-0.4,1.2-0.3,1.6,0.2c0.4,0.5,0.3,1.2-0.2,1.6l-4.2,3.4c-0.5,0.4-1.2,0.3-1.6-0.2
			C168.7,65.8,168.8,65.1,169.3,64.8z"/>
	</g>
	<g class="st1">
		<path class="st2" d="M34.5,38.5L29.2,39c-0.6,0.1-1.1-0.4-1.2-1s0.4-1.1,1-1.2l5.3-0.5c0.6-0.1,1.1,0.4,1.2,1
			C35.5,37.9,35.1,38.5,34.5,38.5z"/>
	</g>
	<g class="st1">
		<path class="st2" d="M280,190.5l-2.4,1.4c-0.3,0.2-0.6,0.1-0.8-0.2c-0.2-0.3-0.1-0.6,0.2-0.8l2.4-1.4c0.3-0.2,0.6-0.1,0.8,0.2
			C280.4,189.9,280.3,190.3,280,190.5z"/>
	</g>
	<g class="st1">
		<path class="st2" d="M137,237.5l1.5-8.4c0.2-1,1.1-1.6,2-1.4c1,0.2,1.6,1.1,1.4,2l-1.5,8.4c-0.2,1-1.1,1.6-2,1.4
			C137.5,239.4,136.9,238.5,137,237.5z"/>
	</g>
	<g class="st1">
		<path class="st2" d="M10.5,23.3l-3.3,4.3c-0.4,0.5-1.1,0.6-1.6,0.2S5,26.7,5.4,26.2l3.3-4.3c0.4-0.5,1.1-0.6,1.6-0.2
			C10.8,22.1,10.9,22.8,10.5,23.3z"/>
	</g>
	<g class="st1">
		<path class="st2" d="M108.1,87.5l2.4,1.7c0.3,0.2,0.3,0.6,0.1,0.8c-0.2,0.3-0.6,0.3-0.8,0.1l-2.4-1.7c-0.3-0.2-0.3-0.6-0.1-0.8
			C107.4,87.4,107.8,87.3,108.1,87.5z"/>
	</g>
</g>
<g class="st0">
	<g class="st1">
		<path class="st3" d="M10.5,247l0.5,6c0.1,0.7-0.5,1.3-1.1,1.4c-0.7,0.1-1.3-0.5-1.4-1.1l-0.5-6c-0.1-0.7,0.5-1.3,1.1-1.4
			C9.9,245.8,10.5,246.3,10.5,247z"/>
	</g>
	<g class="st1">
		<path class="st3" d="M236.8,261.7l-0.2-3.8c0-0.4,0.3-0.8,0.8-0.8c0.4,0,0.8,0.3,0.8,0.8l0.1,3.8c0,0.4-0.3,0.8-0.8,0.8
			C237.2,262.5,236.9,262.1,236.8,261.7z"/>
	</g>
	<g class="st1">
		<path class="st3" d="M24.3,4.6l-3.8,1.6c-0.4,0.2-0.9,0-1.1-0.5c-0.2-0.4,0-0.9,0.5-1.1L23.6,3c0.4-0.2,0.9,0,1.1,0.5
			C24.9,3.9,24.7,4.4,24.3,4.6z"/>
	</g>
	<g class="st1">
		<path class="st3" d="M280.2,92.2l2.7,0.4c0.3,0.1,0.5,0.3,0.5,0.6c-0.1,0.3-0.3,0.5-0.6,0.5l-2.7-0.4c-0.3-0.1-0.5-0.3-0.5-0.6
			S279.9,92.2,280.2,92.2z"/>
	</g>
	<g class="st1">
		<path class="st3" d="M246.3,157.5l6.6-3.1c0.7-0.3,1.6,0,2,0.7c0.3,0.7,0,1.6-0.7,2l-6.6,3.1c-0.7,0.3-1.6,0-2-0.7
			C245.2,158.7,245.5,157.9,246.3,157.5z"/>
	</g>
	<g class="st1">
		<path class="st3" d="M83.1,189.9l-4.4,0.2c-0.5,0-0.9-0.4-1-0.9c0-0.5,0.4-0.9,0.9-1L83,188c0.5,0,0.9,0.4,1,0.9
			C84,189.4,83.6,189.9,83.1,189.9z"/>
	</g>
	<g class="st1">
		<path class="st3" d="M279,117l-3.4,1.8c-0.4,0.2-0.9,0.1-1.1-0.3s-0.1-0.9,0.3-1.1l3.4-1.8c0.4-0.2,0.9-0.1,1.1,0.3
			S279.4,116.8,279,117z"/>
	</g>
	<g class="st1">
		<path class="st3" d="M219.8,187.9l0.1,7.2c0,0.8-0.6,1.5-1.5,1.5c-0.8,0-1.5-0.6-1.5-1.5l-0.1-7.2c0-0.8,0.6-1.5,1.5-1.5
			C219.1,186.5,219.8,187.1,219.8,187.9z"/>
	</g>
	<g class="st1">
		<path class="st3" d="M143.1,8.1l-0.6-2.6c-0.1-0.3,0.1-0.6,0.4-0.7c0.3-0.1,0.6,0.1,0.7,0.4l0.6,2.6c0.1,0.3-0.1,0.6-0.4,0.7
			C143.5,8.5,143.2,8.4,143.1,8.1z"/>
	</g>
	<g class="st1">
		<path class="st3" d="M206.4,8.7l-4.6,7.3c-0.5,0.8-1.6,1.1-2.4,0.5c-0.8-0.5-1.1-1.6-0.5-2.4l4.6-7.3c0.5-0.8,1.6-1.1,2.5-0.5
			C206.6,6.8,206.9,7.9,206.4,8.7z"/>
	</g>
	<g class="st1">
		<path class="st3" d="M187.3,136.7l2.3-1.2c0.3-0.1,0.6,0,0.7,0.2c0.1,0.3,0,0.6-0.2,0.7l-2.3,1.2c-0.3,0.1-0.6,0-0.7-0.2
			C186.9,137.2,187,136.9,187.3,136.7z"/>
	</g>
	<g class="st1">
		<path class="st3" d="M141.6,68.7l6.2-0.8c0.7-0.1,1.3,0.4,1.4,1.1c0.1,0.7-0.4,1.3-1.1,1.4l-6.2,0.8c-0.7,0.1-1.3-0.4-1.4-1.1
			C140.4,69.5,140.9,68.8,141.6,68.7z"/>
	</g>
	<g class="st1">
		<path class="st3" d="M178.4,120.9l2.4-3.5c0.3-0.4,0.8-0.5,1.2-0.2s0.5,0.8,0.2,1.2l-2.4,3.5c-0.3,0.4-0.8,0.5-1.2,0.2
			C178.2,121.9,178.1,121.3,178.4,120.9z"/>
	</g>
	<g class="st1">
		<path class="st3" d="M140.9,118.7l3.4-5.3c0.4-0.6,1.2-0.8,1.8-0.4s0.8,1.2,0.4,1.8l-3.4,5.3c-0.4,0.6-1.2,0.8-1.8,0.4
			C140.7,120.1,140.5,119.3,140.9,118.7z"/>
	</g>
	<g class="st1">
		<path class="st3" d="M87.6,272.7l1.3,2.6c0.1,0.3,0,0.6-0.3,0.8c-0.3,0.1-0.6,0-0.8-0.3l-1.3-2.6c-0.1-0.3,0-0.6,0.3-0.8
			C87.1,272.3,87.4,272.4,87.6,272.7z"/>
	</g>
	<g class="st1">
		<path class="st3" d="M216.9,168.4l-2.1,4.4c-0.2,0.5-0.9,0.7-1.4,0.5s-0.7-0.9-0.5-1.4l2.1-4.4c0.2-0.5,0.9-0.7,1.4-0.5
			C216.9,167.3,217.2,167.9,216.9,168.4z"/>
	</g>
	<g class="st1">
		<path class="st3" d="M154.5,270.4l-7.2,5.9c-0.8,0.7-2,0.6-2.7-0.3c-0.7-0.8-0.6-2,0.3-2.7l7.2-5.9c0.8-0.7,2-0.6,2.7,0.3
			C155.4,268.5,155.3,269.7,154.5,270.4z"/>
	</g>
	<g class="st1">
		<path class="st3" d="M29.1,122.2l3.8,0.1c0.4,0,0.8,0.4,0.8,0.8s-0.4,0.8-0.8,0.8l-3.8-0.1c-0.4,0-0.8-0.4-0.8-0.8
			C28.3,122.6,28.7,122.2,29.1,122.2z"/>
	</g>
	<g class="st1">
		<path class="st3" d="M260.8,130.8l0.2,7.6c0,0.9-0.7,1.6-1.5,1.6c-0.9,0-1.6-0.7-1.6-1.5l-0.2-7.6c0-0.9,0.7-1.6,1.5-1.6
			C260.1,129.3,260.8,129.9,260.8,130.8z"/>
	</g>
	<g class="st1">
		<path class="st3" d="M40.2,158.4l-9.4,1.6c-1.1,0.2-2.1-0.5-2.3-1.6c-0.2-1.1,0.5-2.1,1.6-2.3l9.4-1.6c1.1-0.2,2.1,0.5,2.3,1.6
			S41.3,158.2,40.2,158.4z"/>
	</g>
	<g class="st1">
		<path class="st3" d="M99.2,70.6l1.2-2.2c0.1-0.3,0.4-0.4,0.7-0.2c0.3,0.1,0.4,0.4,0.2,0.7l-1.2,2.2c-0.1,0.3-0.4,0.4-0.7,0.2
			C99.2,71.2,99.1,70.9,99.2,70.6z"/>
	</g>
	<g class="st1">
		<path class="st3" d="M45.2,213.8l-2.8,2.9c-0.3,0.3-0.9,0.3-1.2,0s-0.3-0.9,0-1.2l2.8-2.9c0.3-0.3,0.9-0.3,1.2,0
			C45.5,212.9,45.5,213.5,45.2,213.8z"/>
	</g>
	<g class="st1">
		<path class="st3" d="M6.2,3.6l-1,5.3c-0.1,0.6-0.7,1-1.3,0.9C3.3,9.7,2.9,9.1,3,8.5l1-5.3c0.1-0.6,0.7-1,1.3-0.9S6.3,3,6.2,3.6z"
			/>
	</g>
	<g class="st1">
		<path class="st3" d="M30.3,258.3l-1.9-2.5c-0.2-0.3-0.2-0.7,0.1-0.9c0.3-0.2,0.7-0.2,0.9,0.1l1.9,2.5c0.2,0.3,0.2,0.7-0.1,0.9
			S30.5,258.6,30.3,258.3z"/>
	</g>
	<g class="st1">
		<path class="st3" d="M212.8,136.4l-5.8,4.4c-0.7,0.5-1.6,0.4-2.1-0.3s-0.4-1.6,0.3-2.1l5.8-4.4c0.7-0.5,1.6-0.4,2.1,0.3
			C213.6,135,213.5,135.9,212.8,136.4z"/>
	</g>
	<g class="st1">
		<path class="st3" d="M111,281.8l-5.8,2.9c-0.7,0.3-1.5,0.1-1.8-0.6s-0.1-1.5,0.6-1.8l5.8-2.9c0.7-0.3,1.5-0.1,1.8,0.6
			C111.9,280.6,111.6,281.4,111,281.8z"/>
	</g>
	<g class="st1">
		<path class="st3" d="M93.3,255.7l-2.6-0.3c-0.3,0-0.5-0.3-0.5-0.6s0.3-0.5,0.6-0.5l2.6,0.3c0.3,0,0.5,0.3,0.5,0.6
			S93.6,255.7,93.3,255.7z"/>
	</g>
	<g class="st1">
		<path class="st3" d="M273.1,215.6l2.9-1.5c0.3-0.2,0.7,0,0.9,0.3c0.2,0.3,0,0.7-0.3,0.9l-2.9,1.5c-0.3,0.2-0.7,0-0.9-0.3
			C272.6,216.2,272.8,215.7,273.1,215.6z"/>
	</g>
	<g class="st1">
		<path class="st3" d="M174.1,242.6l-1.1,2.3c-0.1,0.3-0.4,0.4-0.7,0.3c-0.3-0.1-0.4-0.4-0.3-0.7l1.1-2.3c0.1-0.3,0.4-0.4,0.7-0.3
			S174.3,242.3,174.1,242.6z"/>
	</g>
	<g class="st1">
		<path class="st3" d="M199.4,256.4h4.4c0.5,0,0.9,0.4,0.9,0.9s-0.4,0.9-0.9,0.9h-4.4c-0.5,0-0.9-0.4-0.9-0.9
			S198.9,256.4,199.4,256.4z"/>
	</g>
	<g class="st1">
		<path class="st3" d="M30.8,237.1l-4.1-0.7c-0.5-0.1-0.8-0.5-0.7-1c0.1-0.5,0.5-0.8,1-0.7l4.1,0.7c0.5,0.1,0.8,0.5,0.7,1
			C31.7,236.9,31.2,237.2,30.8,237.1z"/>
	</g>
	<g class="st1">
		<path class="st3" d="M285.2,133.3l-4,4.9c-0.5,0.6-1.3,0.6-1.8,0.2c-0.6-0.5-0.6-1.3-0.2-1.8l4-4.9c0.5-0.6,1.3-0.6,1.8-0.2
			C285.6,131.9,285.7,132.7,285.2,133.3z"/>
	</g>
	<g class="st1">
		<path class="st3" d="M261,259.5l-4.3,0.9c-0.5,0.1-1-0.2-1.1-0.7s0.2-1,0.7-1.1l4.3-0.9c0.5-0.1,1,0.2,1.1,0.7
			C261.8,258.9,261.5,259.4,261,259.5z"/>
	</g>
	<g class="st1">
		<path class="st3" d="M155.3,218.7l-8.3,1.9c-0.9,0.2-1.9-0.4-2.1-1.3c-0.2-0.9,0.4-1.9,1.3-2.1l8.3-1.9c0.9-0.2,1.9,0.4,2.1,1.3
			C156.8,217.6,156.2,218.5,155.3,218.7z"/>
	</g>
	<g class="st1">
		<path class="st3" d="M187.3,171.4l-2.7,0.8c-0.3,0.1-0.6-0.1-0.7-0.4c-0.1-0.3,0.1-0.6,0.4-0.7l2.7-0.8c0.3-0.1,0.6,0.1,0.7,0.4
			C187.7,171,187.6,171.3,187.3,171.4z"/>
	</g>
	<g class="st1">
		<path class="st3" d="M155.2,30l1,3.4c0.1,0.4-0.1,0.8-0.5,0.9c-0.4,0.1-0.8-0.1-0.9-0.5l-1-3.4c-0.1-0.4,0.1-0.8,0.5-0.9
			C154.7,29.4,155.1,29.6,155.2,30z"/>
	</g>
	<g class="st1">
		<path class="st3" d="M154.5,151.7l-6.8,2.5c-0.8,0.3-1.6-0.1-1.9-0.9c-0.3-0.8,0.1-1.6,0.9-1.9l6.8-2.5c0.8-0.3,1.6,0.1,1.9,0.9
			C155.7,150.5,155.3,151.4,154.5,151.7z"/>
	</g>
	<g class="st1">
		<path class="st3" d="M113.8,10.8l5.6-6.4c0.6-0.7,1.7-0.8,2.5-0.2c0.7,0.6,0.8,1.7,0.2,2.5l-5.6,6.4c-0.6,0.7-1.7,0.8-2.5,0.2
			C113.2,12.6,113.1,11.5,113.8,10.8z"/>
	</g>
	<g class="st1">
		<path class="st3" d="M202.9,235.7l-2.2-1.7c-0.3-0.2-0.3-0.5-0.1-0.8s0.5-0.3,0.8-0.1l2.2,1.7c0.3,0.2,0.3,0.5,0.1,0.8
			C203.5,235.8,203.2,235.9,202.9,235.7z"/>
	</g>
	<g class="st1">
		<path class="st3" d="M283.2,171.7l-0.1-2.8c0-0.3,0.2-0.6,0.6-0.6c0.3,0,0.6,0.2,0.6,0.6l0.1,2.8c0,0.3-0.2,0.6-0.6,0.6
			C283.5,172.2,283.3,172,283.2,171.7z"/>
	</g>
</g>
<g class="st0">
	<g class="st1">
		<path class="st4" d="M64.3,262.9l1.7,1.9c0.2,0.2,0.2,0.6,0,0.8c-0.2,0.2-0.6,0.2-0.8,0l-1.7-1.9c-0.2-0.2-0.2-0.6,0-0.8
			C63.8,262.7,64.1,262.7,64.3,262.9z"/>
	</g>
	<g class="st1">
		<path class="st4" d="M134.9,28l-2.9,1.1c-0.3,0.1-0.7,0-0.8-0.4c-0.1-0.3,0-0.7,0.4-0.8l2.9-1.1c0.3-0.1,0.7,0,0.8,0.4
			C135.4,27.5,135.2,27.8,134.9,28z"/>
	</g>
	<g class="st1">
		<path class="st4" d="M144.5,93.7l-2.3,1.9c-0.3,0.2-0.6,0.2-0.8-0.1c-0.2-0.3-0.2-0.6,0.1-0.8l2.2-1.9c0.3-0.2,0.6-0.2,0.8,0.1
			C144.8,93.1,144.8,93.5,144.5,93.7z"/>
	</g>
	<g class="st1">
		<path class="st4" d="M148.2,250l3.8,2.6c0.4,0.3,0.5,0.9,0.2,1.3c-0.3,0.4-0.9,0.5-1.3,0.2l-3.8-2.6c-0.4-0.3-0.5-0.9-0.2-1.3
			C147.2,249.8,147.8,249.7,148.2,250z"/>
	</g>
	<g class="st1">
		<path class="st4" d="M40.2,59.4l4.2-5.6c0.5-0.6,1.4-0.8,2-0.3s0.8,1.4,0.3,2l-4.2,5.6c-0.5,0.6-1.4,0.8-2,0.3
			C39.8,60.9,39.7,60,40.2,59.4z"/>
	</g>
	<g class="st1">
		<path class="st4" d="M220.3,46.3l-1.8-2.7c-0.2-0.3-0.1-0.7,0.2-0.9s0.7-0.1,0.9,0.2l1.8,2.7c0.2,0.3,0.1,0.7-0.2,0.9
			S220.5,46.6,220.3,46.3z"/>
	</g>
	<g class="st1">
		<path class="st4" d="M230.3,29.7l4.3-3.8c0.5-0.4,1.2-0.4,1.7,0.1c0.4,0.5,0.4,1.2-0.1,1.7l-4.3,3.8c-0.5,0.4-1.2,0.4-1.7-0.1
			C229.7,30.9,229.8,30.1,230.3,29.7z"/>
	</g>
	<g class="st1">
		<path class="st4" d="M127.3,101.3l-2.2,2.5c-0.3,0.3-0.7,0.3-1,0.1c-0.3-0.3-0.3-0.7-0.1-1l2.2-2.5c0.3-0.3,0.7-0.3,1-0.1
			C127.5,100.5,127.5,101,127.3,101.3z"/>
	</g>
	<g class="st1">
		<path class="st4" d="M54.9,117.8l-2.4,7c-0.3,0.8-1.1,1.2-1.9,0.9c-0.8-0.3-1.2-1.1-0.9-1.9l2.4-7c0.3-0.8,1.1-1.2,1.9-0.9
			C54.8,116.1,55.2,117,54.9,117.8z"/>
	</g>
	<g class="st1">
		<path class="st4" d="M55.3,82.3l-5.5-4.1c-0.6-0.5-0.7-1.4-0.3-2c0.5-0.6,1.4-0.7,2-0.3L57,80c0.6,0.5,0.7,1.4,0.3,2
			C56.8,82.7,55.9,82.8,55.3,82.3z"/>
	</g>
	<g class="st1">
		<path class="st4" d="M36.5,184.6l-0.7,4.7c-0.1,0.5-0.6,0.9-1.1,0.8c-0.5-0.1-0.9-0.6-0.8-1.1l0.7-4.7c0.1-0.5,0.6-0.9,1.1-0.8
			C36.2,183.6,36.6,184,36.5,184.6z"/>
	</g>
	<g class="st1">
		<path class="st4" d="M254.3,111.3l3.4,6.2c0.4,0.7,0.1,1.6-0.6,2s-1.6,0.1-2-0.6l-3.4-6.2c-0.4-0.7-0.1-1.6,0.6-2
			C253,110.3,253.9,110.6,254.3,111.3z"/>
	</g>
	<g class="st1">
		<path class="st4" d="M234.1,133.6l-5.8,4.3c-0.7,0.5-1.6,0.4-2.1-0.3s-0.4-1.6,0.3-2.1l5.8-4.3c0.7-0.5,1.6-0.4,2.1,0.3
			S234.8,133.1,234.1,133.6z"/>
	</g>
	<g class="st1">
		<path class="st4" d="M250.9,49.3l-4.7,2.2c-0.5,0.2-1.2,0-1.4-0.5s0-1.2,0.5-1.4l4.7-2.2c0.5-0.2,1.2,0,1.4,0.5
			C251.7,48.4,251.5,49,250.9,49.3z"/>
	</g>
	<g class="st1">
		<path class="st4" d="M174.8,148.5l-0.4,9.8c0,1.1-1,2-2.1,1.9c-1.1,0-2-1-1.9-2.1l0.4-9.8c0-1.1,1-2,2.1-1.9
			C173.9,146.4,174.8,147.4,174.8,148.5z"/>
	</g>
	<g class="st1">
		<path class="st4" d="M91.2,157.1l4.4-0.2c0.5,0,0.9,0.4,0.9,0.9s-0.4,0.9-0.9,0.9l-4.4,0.2c-0.5,0-0.9-0.4-0.9-0.9
			C90.4,157.5,90.7,157.1,91.2,157.1z"/>
	</g>
	<g class="st1">
		<path class="st4" d="M202.5,31.8l-1.2,2.2c-0.1,0.2-0.4,0.3-0.7,0.2c-0.2-0.1-0.3-0.4-0.2-0.7l1.2-2.2c0.1-0.2,0.4-0.3,0.7-0.2
			C202.6,31.3,202.7,31.6,202.5,31.8z"/>
	</g>
	<g class="st1">
		<path class="st4" d="M256,27.3l7-1.9c0.8-0.2,1.6,0.3,1.8,1c0.2,0.8-0.3,1.6-1,1.8l-7,1.9c-0.8,0.2-1.6-0.3-1.8-1
			C254.7,28.3,255.2,27.5,256,27.3z"/>
	</g>
	<g class="st1">
		<path class="st4" d="M105,29.2l-1.6-4.6c-0.2-0.5,0.1-1.1,0.6-1.3c0.5-0.2,1.1,0.1,1.3,0.6l1.6,4.6c0.2,0.5-0.1,1.1-0.6,1.3
			C105.7,30,105.2,29.7,105,29.2z"/>
	</g>
	<g class="st1">
		<path class="st4" d="M165.6,108.5l-5.8-4.2c-0.7-0.5-0.8-1.4-0.3-2.1s1.4-0.8,2.1-0.3l5.8,4.2c0.7,0.5,0.8,1.4,0.3,2.1
			C167.2,108.9,166.3,109,165.6,108.5z"/>
	</g>
	<g class="st1">
		<path class="st4" d="M131.6,132.1l3.4,3.1c0.4,0.4,0.4,1,0.1,1.3c-0.4,0.4-1,0.4-1.3,0.1l-3.4-3.1c-0.4-0.4-0.4-1-0.1-1.3
			C130.6,131.8,131.2,131.7,131.6,132.1z"/>
	</g>
	<g class="st1">
		<path class="st4" d="M179.6,7.4l-0.4-2.7c0-0.3,0.2-0.6,0.5-0.6s0.6,0.2,0.6,0.5l0.4,2.7c0,0.3-0.2,0.6-0.5,0.6
			C180,7.9,179.7,7.7,179.6,7.4z"/>
	</g>
	<g class="st1">
		<path class="st4" d="M194.9,191.3l1.1-2.3c0.1-0.3,0.4-0.4,0.7-0.2c0.3,0.1,0.4,0.4,0.2,0.7l-1.1,2.3c-0.1,0.3-0.4,0.4-0.7,0.2
			C194.8,191.9,194.7,191.6,194.9,191.3z"/>
	</g>
	<g class="st1">
		<path class="st4" d="M206,93.6l-5.7-2.4c-0.6-0.3-1-1-0.7-1.7c0.3-0.6,1-1,1.7-0.7l5.7,2.4c0.6,0.3,1,1,0.7,1.7
			S206.6,93.9,206,93.6z"/>
	</g>
	<g class="st1">
		<path class="st4" d="M95.3,103.6l0.8,3.2c0.1,0.4-0.1,0.7-0.5,0.8c-0.4,0.1-0.7-0.1-0.8-0.5l-0.8-3.2c-0.1-0.4,0.1-0.7,0.5-0.8
			C94.9,103,95.3,103.2,95.3,103.6z"/>
	</g>
	<g class="st1">
		<path class="st4" d="M168.9,183.8l7.8-1.4c0.9-0.2,1.7,0.4,1.9,1.3c0.2,0.9-0.4,1.7-1.3,1.9l-7.8,1.4c-0.9,0.2-1.7-0.4-1.9-1.3
			C167.4,184.8,168,183.9,168.9,183.8z"/>
	</g>
	<g class="st1">
		<path class="st4" d="M221.3,237.4l8.8-3.3c1-0.4,2.1,0.1,2.5,1.1s-0.1,2.1-1.1,2.5l-8.8,3.3c-1,0.4-2.1-0.1-2.5-1.1
			S220.3,237.8,221.3,237.4z"/>
	</g>
	<g class="st1">
		<path class="st4" d="M27.3,16.7l8.3-0.2c0.9,0,1.7,0.7,1.8,1.7c0,0.9-0.7,1.7-1.7,1.8l-8.3,0.2c-0.9,0-1.7-0.7-1.8-1.7
			C25.6,17.5,26.3,16.7,27.3,16.7z"/>
	</g>
	<g class="st1">
		<path class="st4" d="M192.3,75.6l-1.1-5.6c-0.1-0.6,0.3-1.3,0.9-1.4c0.6-0.1,1.3,0.3,1.4,0.9l1.1,5.6c0.1,0.6-0.3,1.3-0.9,1.4
			S192.5,76.2,192.3,75.6z"/>
	</g>
	<g class="st1">
		<path class="st4" d="M98.6,189.7l6.9-2.8c0.8-0.3,1.7,0.1,2,0.8c0.3,0.8-0.1,1.7-0.8,2l-6.9,2.8c-0.8,0.3-1.7-0.1-2-0.8
			C97.4,190.9,97.8,190,98.6,189.7z"/>
	</g>
	<g class="st1">
		<path class="st4" d="M282.2,40.2l-5.7-1c-0.6-0.1-1.1-0.7-1-1.4c0.1-0.6,0.7-1.1,1.4-1l5.7,1c0.7,0.1,1.1,0.7,1,1.4
			S282.9,40.3,282.2,40.2z"/>
	</g>
	<g class="st1">
		<path class="st4" d="M82.7,235.9l-7,6.8c-0.8,0.8-2.1,0.8-2.8,0c-0.8-0.8-0.8-2.1,0-2.8l7-6.8c0.8-0.8,2.1-0.8,2.8,0
			C83.5,233.9,83.5,235.2,82.7,235.9z"/>
	</g>
	<g class="st1">
		<path class="st4" d="M176,275.3l-2.6-1.8c-0.3-0.2-0.4-0.6-0.2-0.9s0.6-0.4,0.9-0.2l2.6,1.8c0.3,0.2,0.4,0.6,0.2,0.9
			C176.7,275.5,176.3,275.6,176,275.3z"/>
	</g>
	<g class="st1">
		<path class="st4" d="M45.4,142.2l-3.7-2.1c-0.4-0.2-0.6-0.8-0.3-1.2c0.2-0.4,0.8-0.6,1.2-0.3l3.7,2.1c0.4,0.2,0.6,0.8,0.3,1.2
			C46.3,142.3,45.8,142.4,45.4,142.2z"/>
	</g>
	<g class="st1">
		<path class="st4" d="M226.9,272l6.7,7c0.8,0.8,0.7,2.1-0.1,2.8c-0.8,0.8-2.1,0.7-2.8-0.1l-6.7-7c-0.8-0.8-0.7-2.1,0.1-2.8
			C224.8,271.2,226.1,271.2,226.9,272z"/>
	</g>
	<g class="st1">
		<path class="st4" d="M181.8,91.3l-2.1,3.1c-0.2,0.3-0.7,0.4-1.1,0.2c-0.3-0.2-0.4-0.7-0.2-1.1l2.1-3.1c0.2-0.3,0.7-0.4,1.1-0.2
			C182,90.5,182.1,91,181.8,91.3z"/>
	</g>
	<g class="st1">
		<path class="st4" d="M45,273.9l-2.3-1.9c-0.3-0.2-0.3-0.6-0.1-0.8c0.2-0.3,0.6-0.3,0.8-0.1l2.3,1.9c0.3,0.2,0.3,0.6,0.1,0.8
			C45.6,274.1,45.2,274.1,45,273.9z"/>
	</g>
	<g class="st1">
		<path class="st4" d="M264.5,92.2l-0.9,3.4c-0.1,0.4-0.5,0.6-0.9,0.5s-0.6-0.5-0.5-0.9l0.9-3.4c0.1-0.4,0.5-0.6,0.9-0.5
			C264.4,91.4,264.6,91.8,264.5,92.2z"/>
	</g>
	<g class="st1">
		<path class="st4" d="M162.7,203.6l1.5-2.6c0.2-0.3,0.5-0.4,0.8-0.2s0.4,0.5,0.2,0.8l-1.5,2.6c-0.2,0.3-0.5,0.4-0.8,0.2
			C162.7,204.3,162.6,203.9,162.7,203.6z"/>
	</g>
	<g class="st1">
		<path class="st4" d="M119.2,262.4l-1.7,9.4c-0.2,1.1-1.2,1.8-2.3,1.6c-1.1-0.2-1.8-1.2-1.6-2.3l1.7-9.4c0.2-1.1,1.2-1.8,2.3-1.6
			C118.7,260.3,119.4,261.3,119.2,262.4z"/>
	</g>
</g>
<g>
	<g>
		<path class="st5" d="M274.3,152l2.5-0.9c0.3-0.1,0.6,0,0.7,0.3s0,0.6-0.3,0.7l-2.5,0.9c-0.3,0.1-0.6,0-0.7-0.3
			S274,152.1,274.3,152z"/>
	</g>
	<g>
		<path class="st5" d="M14,221.9L7.1,228c-0.8,0.7-2,0.6-2.7-0.2s-0.6-2,0.2-2.7l6.9-6.1c0.8-0.7,2-0.6,2.7,0.2S14.8,221.2,14,221.9
			z"/>
	</g>
	<g>
		<path class="st5" d="M163.6,124.6l-0.8,7.6c-0.1,0.9-0.9,1.5-1.7,1.4c-0.9-0.1-1.5-0.9-1.4-1.7l0.8-7.6c0.1-0.9,0.9-1.5,1.7-1.4
			C163.1,123,163.7,123.8,163.6,124.6z"/>
	</g>
	<g>
		<path class="st5" d="M4.7,47.1L8,49.6c0.4,0.3,0.4,0.8,0.2,1.2C7.9,51.2,7.3,51.3,7,51l-3.3-2.5c-0.4-0.3-0.4-0.8-0.2-1.2
			C3.8,46.9,4.4,46.8,4.7,47.1z"/>
	</g>
	<g>
		<path class="st5" d="M17.6,145l-2.5,8.6c-0.3,1-1.3,1.6-2.3,1.3s-1.6-1.3-1.3-2.3L14,144c0.3-1,1.3-1.6,2.3-1.3
			C17.3,142.9,17.8,144,17.6,145z"/>
	</g>
	<g>
		<path class="st5" d="M53.9,235.9l3,1.1c0.3,0.1,0.5,0.5,0.4,0.8s-0.5,0.5-0.8,0.4l-3-1.1c-0.3-0.1-0.5-0.5-0.4-0.8
			C53.2,236,53.6,235.8,53.9,235.9z"/>
	</g>
	<g>
		<path class="st5" d="M70.9,284.9l-4-1.2c-0.5-0.1-0.7-0.6-0.6-1.1s0.6-0.7,1.1-0.6l4,1.2c0.5,0.1,0.7,0.6,0.6,1.1
			S71.4,285,70.9,284.9z"/>
	</g>
	<g>
		<path class="st5" d="M203.4,279.4l-1.9,2.1c-0.2,0.2-0.6,0.3-0.8,0.1c-0.2-0.2-0.3-0.6-0.1-0.8l1.9-2.1c0.2-0.2,0.6-0.3,0.8-0.1
			C203.6,278.8,203.6,279.1,203.4,279.4z"/>
	</g>
	<g>
		<path class="st5" d="M5.6,77.7l1-2.7c0.1-0.3,0.5-0.5,0.8-0.3c0.3,0.1,0.5,0.5,0.3,0.8l-1,2.7c-0.1,0.3-0.5,0.5-0.8,0.3
			C5.7,78.4,5.5,78.1,5.6,77.7z"/>
	</g>
	<g>
		<path class="st5" d="M21.6,54.6l-0.1,2.6c0,0.3-0.3,0.5-0.6,0.5c-0.3,0-0.5-0.3-0.5-0.6l0.1-2.6c0-0.3,0.3-0.5,0.6-0.5
			C21.3,54,21.6,54.3,21.6,54.6z"/>
	</g>
	<g>
		<path class="st5" d="M231.9,8.1l-1.6,3.7c-0.2,0.4-0.7,0.6-1.1,0.4c-0.4-0.2-0.6-0.7-0.4-1.1l1.6-3.7c0.2-0.4,0.7-0.6,1.1-0.4
			C231.9,7.2,232.1,7.7,231.9,8.1z"/>
	</g>
	<g>
		<path class="st5" d="M226.5,113.7l4.4-1.3c0.5-0.1,1,0.1,1.2,0.6s-0.1,1-0.6,1.2l-4.4,1.3c-0.5,0.1-1-0.1-1.2-0.6
			C225.7,114.4,226,113.9,226.5,113.7z"/>
	</g>
	<g>
		<path class="st5" d="M124.1,73.5l2.3,0.9c0.3,0.1,0.4,0.4,0.3,0.7c-0.1,0.3-0.4,0.4-0.7,0.3l-2.3-0.9c-0.3-0.1-0.4-0.4-0.3-0.7
			C123.6,73.5,123.9,73.4,124.1,73.5z"/>
	</g>
	<g>
		<path class="st5" d="M3.5,167l3.3,3.4c0.4,0.4,0.4,1,0,1.4s-1,0.4-1.4,0l-3.3-3.4c-0.4-0.4-0.4-1,0-1.4S3.1,166.6,3.5,167z"/>
	</g>
	<g>
		<path class="st5" d="M280.3,282.7l2.8-2.8c0.3-0.3,0.8-0.3,1.2,0c0.3,0.3,0.3,0.8,0,1.2l-2.8,2.8c-0.3,0.3-0.8,0.3-1.2,0
			C279.9,283.5,280,283,280.3,282.7z"/>
	</g>
	<g>
		<path class="st5" d="M241.6,179.8l3-0.1c0.3,0,0.6,0.3,0.6,0.6s-0.3,0.6-0.6,0.7l-3,0.1c-0.3,0-0.6-0.3-0.6-0.6
			C241,180.1,241.3,179.8,241.6,179.8z"/>
	</g>
	<g>
		<path class="st5" d="M207.6,212.5l3.1-1.4c0.3-0.2,0.8,0,0.9,0.3c0.2,0.3,0,0.8-0.3,0.9l-3.1,1.4c-0.3,0.2-0.8,0-0.9-0.3
			C207.2,213.1,207.3,212.7,207.6,212.5z"/>
	</g>
	<g>
		<path class="st5" d="M29.4,97.1l6.6,2.3c0.8,0.3,1.2,1.1,0.9,1.8c-0.3,0.8-1.1,1.2-1.8,0.9l-6.6-2.3c-0.8-0.3-1.2-1.1-0.9-1.8
			C27.8,97.3,28.6,96.9,29.4,97.1z"/>
	</g>
	<g>
		<path class="st5" d="M57.8,99.2l0.4,3.7c0,0.4-0.3,0.8-0.7,0.8s-0.8-0.3-0.8-0.7l-0.4-3.7c0-0.4,0.3-0.8,0.7-0.8
			S57.8,98.8,57.8,99.2z"/>
	</g>
	<g>
		<path class="st5" d="M183.8,218.4l-2.4-1.2c-0.3-0.1-0.4-0.5-0.3-0.7c0.1-0.3,0.5-0.4,0.7-0.3l2.4,1.2c0.3,0.1,0.4,0.5,0.3,0.7
			C184.4,218.4,184.1,218.5,183.8,218.4z"/>
	</g>
	<g>
		<path class="st5" d="M87,57.7l-6.5,1.4c-0.7,0.2-1.5-0.3-1.6-1.1c-0.2-0.7,0.3-1.5,1.1-1.6l6.5-1.4c0.7-0.2,1.5,0.3,1.6,1.1
			C88.2,56.8,87.7,57.6,87,57.7z"/>
	</g>
	<g>
		<path class="st5" d="M8,102.9l4.6,7.4c0.5,0.8,0.3,1.9-0.6,2.5c-0.8,0.5-1.9,0.3-2.5-0.6L5,104.8c-0.5-0.8-0.3-1.9,0.6-2.5
			C6.4,101.8,7.5,102,8,102.9z"/>
	</g>
	<g>
		<path class="st5" d="M21.6,274.5l-2.3,9c-0.3,1-1.3,1.7-2.3,1.4c-1-0.3-1.7-1.3-1.4-2.3l2.3-9c0.3-1,1.3-1.7,2.3-1.4
			C21.2,272.4,21.9,273.5,21.6,274.5z"/>
	</g>
	<g>
		<path class="st5" d="M96.5,130.6l-4.8,2.1c-0.5,0.2-1.2,0-1.4-0.6c-0.2-0.5,0-1.2,0.6-1.4l4.8-2.1c0.5-0.2,1.2,0,1.4,0.6
			C97.3,129.7,97.1,130.4,96.5,130.6z"/>
	</g>
	<g>
		<path class="st5" d="M17,199l2.1,3.4c0.2,0.4,0.1,0.9-0.3,1.2c-0.4,0.2-0.9,0.1-1.2-0.3l-2.2-3.4c-0.2-0.4-0.1-0.9,0.3-1.2
			C16.2,198.5,16.7,198.6,17,199z"/>
	</g>
	<g>
		<path class="st5" d="M86.8,218.8l3.6-3.8c0.4-0.4,1.1-0.4,1.5,0s0.4,1.1,0,1.5l-3.6,3.8c-0.4,0.4-1.1,0.4-1.5,0
			C86.5,219.9,86.4,219.2,86.8,218.8z"/>
	</g>
	<g>
		<path class="st5" d="M71.7,128.6l-1.8-3.1c-0.2-0.4-0.1-0.8,0.3-1s0.8-0.1,1,0.3l1.8,3.1c0.2,0.4,0.1,0.8-0.3,1
			C72.4,129.1,71.9,129,71.7,128.6z"/>
	</g>
	<g>
		<path class="st5" d="M65.3,50.3L57.4,49c-0.9-0.2-1.5-1-1.4-1.9c0.2-0.9,1-1.5,1.9-1.4l7.9,1.4c0.9,0.2,1.5,1,1.4,1.9
			C67,49.9,66.2,50.5,65.3,50.3z"/>
	</g>
	<g>
		<path class="st5" d="M273.7,67.1l-2-1.6c-0.2-0.2-0.3-0.5-0.1-0.7c0.2-0.2,0.5-0.3,0.7-0.1l2,1.6c0.2,0.2,0.3,0.5,0.1,0.7
			C274.3,67.2,273.9,67.2,273.7,67.1z"/>
	</g>
	<g>
		<path class="st5" d="M4.4,268.2l1,3.4c0.1,0.4-0.1,0.8-0.5,0.9S4.1,272.4,4,272l-1-3.4c-0.1-0.4,0.1-0.8,0.5-0.9
			S4.3,267.9,4.4,268.2z"/>
	</g>
	<g>
		<path class="st5" d="M229.2,157.8l-1.4-2.8c-0.2-0.3,0-0.7,0.3-0.9s0.7,0,0.9,0.3l1.4,2.8c0.2,0.3,0,0.7-0.3,0.9
			C229.7,158.3,229.3,158.1,229.2,157.8z"/>
	</g>
	<g>
		<path class="st5" d="M76.7,77.9L71,72.1c-0.7-0.7-0.7-1.7,0-2.4c0.7-0.7,1.7-0.7,2.4,0l5.8,5.8c0.7,0.7,0.7,1.7,0,2.4
			C78.5,78.5,77.4,78.5,76.7,77.9z"/>
	</g>
	<g>
		<path class="st5" d="M191,47.5l1.9,6.3c0.2,0.7-0.2,1.5-0.9,1.7s-1.5-0.2-1.7-0.9l-1.9-6.3c-0.2-0.7,0.2-1.5,0.9-1.7
			C190.1,46.4,190.8,46.8,191,47.5z"/>
	</g>
	<g>
		<path class="st5" d="M17.6,173.6l3.3-1.3c0.4-0.1,0.8,0.1,0.9,0.4c0.1,0.4-0.1,0.8-0.4,0.9l-3.3,1.3c-0.4,0.1-0.8,0-0.9-0.4
			S17.3,173.7,17.6,173.6z"/>
	</g>
	<g>
		<path class="st5" d="M246.1,94.6l-5.9,6.1c-0.7,0.7-1.8,0.7-2.5,0s-0.7-1.8,0-2.5l5.9-6.1c0.7-0.7,1.8-0.7,2.5,0
			C246.7,92.8,246.8,93.9,246.1,94.6z"/>
	</g>
	<g>
		<path class="st5" d="M121,168.3l4-2.7c0.5-0.3,1.1-0.2,1.4,0.3s0.2,1.1-0.3,1.4l-4,2.7c-0.5,0.3-1.1,0.2-1.4-0.3
			C120.4,169.2,120.5,168.6,121,168.3z"/>
	</g>
	<g>
		<path class="st5" d="M255.9,201.7l1.4-5.8c0.2-0.7,0.8-1.1,1.5-0.9c0.7,0.2,1.1,0.8,0.9,1.5l-1.4,5.8c-0.2,0.7-0.8,1.1-1.5,0.9
			C256.1,203.1,255.7,202.4,255.9,201.7z"/>
	</g>
	<g>
		<path class="st5" d="M244,216.4l-1.6,8.2c-0.2,0.9-1.1,1.5-2,1.4c-0.9-0.2-1.5-1.1-1.4-2l1.6-8.2c0.2-0.9,1.1-1.5,2-1.4
			S244.2,215.5,244,216.4z"/>
	</g>
	<g>
		<path class="st5" d="M79.6,34.8l-2-2c-0.2-0.2-0.2-0.6,0-0.8s0.6-0.2,0.8,0l2,2c0.2,0.2,0.2,0.6,0,0.8C80.2,35,79.8,35,79.6,34.8z
			"/>
	</g>
	<g>
		<path class="st5" d="M71.9,167.8l7.1-0.3c0.8,0,1.5,0.6,1.5,1.4c0,0.8-0.6,1.5-1.4,1.5l-7.1,0.3c-0.8,0-1.5-0.6-1.5-1.4
			C70.5,168.5,71.1,167.8,71.9,167.8z"/>
	</g>
</g>
</svg>
