<?xml version="1.0" encoding="utf-8"?>
<!-- Generator: Adobe Illustrator 19.1.0, SVG Export Plug-In . SVG Version: 6.00 Build 0)  -->
<svg version="1.1" id="Слой_1" xmlns="http://www.w3.org/2000/svg" xmlns:xlink="http://www.w3.org/1999/xlink" x="0px" y="0px"
	 viewBox="0 0 800 535.5" style="enable-background:new 0 0 800 535.5;" xml:space="preserve">
<style type="text/css">
	.st0{clip-path:url(#SVGID_2_);}
</style>
<g>
	<defs>
		<rect id="SVGID_1_" y="-1.1" width="800" height="535.1"/>
	</defs>
	<clipPath id="SVGID_2_">
		<use xlink:href="#SVGID_1_"  style="overflow:visible;"/>
	</clipPath>
	<g class="st0">
		<g>
			<path d="M664-183.2c-27.4,0-52-1.7-77.8-16.8c-8.2-4.8-16.4-10.6-24.3-16.2c-18.2-12.9-37.1-26.3-59-29.6
				c-30-4.5-60,11.4-86.4,25.5c-3.2,1.7-6.3,3.3-9.3,4.9c-2.8,1.4-5.6,2.9-8.4,4.4c-27,14.3-57.6,30.4-89.2,26.4
				c-19.6-2.5-34.7-13-49.3-23.1c-5.9-4.1-11.9-8.3-18.3-12c-30-17.5-59.8-14.1-98.2-3.1c-14.2,4.1-28.5,9-42.3,13.7
				c-32.5,11-66.1,22.4-101.4,25.1l-0.2-3.2c34.8-2.6,68.2-14,100.6-24.9c13.9-4.7,28.2-9.6,42.5-13.7c32.1-9.3,66.3-16.7,100.7,3.4
				c6.4,3.8,12.6,8,18.5,12.1c15,10.4,29.1,20.2,47.9,22.5c30.6,3.9,60.7-12.1,87.2-26.1c2.8-1.5,5.7-3,8.4-4.4
				c3.1-1.6,6.2-3.2,9.3-4.9c26.9-14.3,57.4-30.5,88.4-25.8c22.6,3.4,41.8,17,60.4,30.2c7.8,5.6,16,11.3,24,16.1
				c28.7,16.8,56.3,16.5,88.1,16.3c3.1,0,6.2-0.1,9.3-0.1c10.9,0,21.9-0.1,32.9-0.1c26.8-0.1,54.5-0.2,81.8-0.4l0,3.3
				c-27.3,0.3-55,0.3-81.8,0.4c-11,0-21.9,0.1-32.9,0.1c-3.1,0-6.2,0-9.3,0.1C672-183.2,668-183.2,664-183.2z"/>
		</g>
		<g>
			<path d="M638.2-167.2c-20.7,0-40.8-2.1-61-12.2c-11.8-5.9-22.2-15.4-32.3-24.6c-13.6-12.4-27.7-25.1-45-28.9
				c-26.6-5.8-57.5,10.6-82.3,23.8c-4.5,2.4-8.7,4.6-12.7,6.6c-2.8,1.4-5.6,2.8-8.4,4.3c-27.2,13.9-58,29.7-89.4,25.8
				c-19.5-2.4-33.9-12.5-49-23.1c-5.8-4.1-11.8-8.3-18.1-12c-30-17.7-60.9-14-98.2-3.1c-14,4.1-28,8.9-41.5,13.6
				c-32,11-65.2,22.5-100.1,25.1l-0.2-3.2c34.5-2.6,67.5-13.9,99.3-24.9c13.6-4.7,27.6-9.5,41.7-13.7c30.7-9,66.3-16.9,100.7,3.4
				c6.4,3.8,12.5,8,18.3,12.1c14.8,10.4,28.8,20.2,47.6,22.6c30.4,3.8,60.7-11.8,87.5-25.5c2.8-1.5,5.6-2.9,8.4-4.3
				c4-2,8.2-4.2,12.6-6.6c25.3-13.4,56.7-30.1,84.5-24.1c18.2,4,32.6,17.1,46.5,29.7c9.9,9,20.2,18.4,31.6,24.1
				c26.4,13.2,53,12.3,81.1,11.3c5.6-0.2,11.4-0.4,17.1-0.5c11.8-0.2,23.8-0.2,35.3-0.3c29-0.2,58.9-0.4,88.4-2.1l0.2,3.2
				c-29.5,1.7-59.5,1.9-88.6,2.1c-11.6,0.1-23.5,0.1-35.3,0.3c-5.8,0.1-11.5,0.3-17.1,0.5C652.5-167.5,645.3-167.2,638.2-167.2z"/>
		</g>
		<g>
			<path d="M621.2-152.7c-16.9,0-33.8-1.5-50.1-7.4c-15.5-5.6-26.8-17.9-37.7-29.8c-12-13-23.3-25.2-39.4-29.4
				c-24.7-6.3-55.6,9.9-80.5,22.9c-5.1,2.7-10,5.2-14.4,7.4c-2.7,1.3-5.5,2.7-8.4,4.1c-27.4,13.5-58.5,28.8-89.7,24.8
				c-19.5-2.5-33.5-12.6-48.4-23.2c-5.7-4.1-11.6-8.3-17.8-12.1c-29.8-18-60.4-14.2-97.1-3.1c-13.6,4.1-27.1,8.9-40.2,13.6
				c-31.1,11-63.2,22.5-97.5,25l-0.2-3.2c33.8-2.5,65.7-13.8,96.6-24.8c13.1-4.7,26.7-9.5,40.3-13.6c32.5-9.8,67.1-16.2,99.7,3.5
				c6.3,3.8,12.3,8.1,18,12.2c14.5,10.4,28.3,20.3,46.9,22.7c30.2,3.8,60.8-11.2,87.8-24.5c2.8-1.4,5.6-2.8,8.4-4.1
				c4.4-2.1,9.2-4.7,14.3-7.3c25.4-13.3,56.9-29.8,82.8-23.1c17.1,4.4,29.2,17.6,41,30.3c10.7,11.6,21.7,23.6,36.5,28.9
				c24,8.7,49.9,7.6,74.9,6.4c8.5-0.4,17.3-0.8,25.9-0.8c0,0,0.1,0,0.1,0c12.2,0,24.7,0.2,36.7,0.4c30.2,0.4,61.5,0.9,92.3-1.5
				l0.3,3.2c-31,2.4-62.3,2-92.6,1.5c-12-0.2-24.4-0.4-36.6-0.4c0,0-0.1,0-0.1,0c-8.5,0-17.3,0.4-25.7,0.8
				C638.7-153.1,630-152.7,621.2-152.7z"/>
		</g>
		<g>
			<path d="M770-137.5c-20,0-40-1.1-59.5-2.1c-12.2-0.7-24.8-1.3-37.3-1.8c-12.6-0.4-26,0.4-39,1.2c-22.2,1.4-45.2,2.8-66.5-1.7
				c-19.8-4.2-31.9-18.7-43.7-32.9c-11.1-13.3-21.6-25.9-37.9-30.2c-23.7-6.2-54.7,9.5-79.7,22.1c-5.7,2.9-11,5.6-15.9,7.8
				c-2.7,1.3-5.5,2.5-8.3,3.8c-24.5,11.5-51.9,24.3-79.4,24.3c-3.6,0-7.1-0.2-10.7-0.7c-19.4-2.5-33.1-12.7-47.6-23.4
				c-5.6-4.1-11.3-8.4-17.4-12.2c-43.5-26.9-95-7.3-144.8,11.7c-29,11.1-56.4,21.5-82.4,23.4l-0.2-3.2c25.5-1.9,52.7-12.3,81.5-23.2
				c50.5-19.3,102.8-39.2,147.7-11.4c6.2,3.8,12,8.1,17.7,12.3c14.2,10.5,27.6,20.4,46.1,22.8c30,3.9,60.9-10.6,88.2-23.3
				c2.8-1.3,5.6-2.6,8.3-3.9c4.8-2.2,10.1-4.9,15.8-7.8c25.4-12.9,57-28.9,82-22.4c17.3,4.6,28.7,18.1,39.6,31.3
				c11.4,13.7,23.2,27.8,41.8,31.8c20.9,4.4,43.6,3,65.6,1.7c13-0.8,26.5-1.6,39.3-1.2c12.5,0.4,25.2,1.1,37.4,1.8
				c30.6,1.7,62.3,3.4,93.7,0.9l0.3,3.2C793.1-137.9,781.5-137.5,770-137.5z"/>
		</g>
		<g>
			<path d="M787.1-120.3c-24.9,0-49.4-2.7-73.2-5.4c-12.1-1.4-24.7-2.8-37.2-3.8c-18.6-1.5-38-1.6-59.2-0.3
				c-6.5,0.4-13.1,1.5-19.6,2.5c-10.2,1.6-20.7,3.3-31.3,2.5c-24.2-1.7-37.7-18.2-50.8-34.2c-11.3-13.8-22-26.8-39.1-31.4
				c-23-6.1-54.2,9.1-79.3,21.4c-6.2,3.1-12.1,5.9-17.3,8.2c-2.7,1.2-5.4,2.4-8.2,3.6c-24.5,10.8-51.9,22.9-79,22.9
				c-3.8,0-7.6-0.2-11.4-0.7c-19.2-2.6-32.5-12.8-46.6-23.6c-5.4-4.1-11-8.4-17-12.3c-42-26.9-91-7.4-138.4,11.4
				c-27.8,11-54.1,21.5-79.3,23.4l-0.2-3.2c24.7-1.9,50.8-12.2,78.4-23.1c48.2-19.1,98-38.9,141.4-11.1c6.1,3.9,11.7,8.2,17.2,12.4
				c13.7,10.5,26.7,20.5,45.1,22.9c29.8,4,61.1-9.7,88.7-21.9c2.8-1.2,5.5-2.4,8.2-3.6c5.1-2.2,11-5.1,17.2-8.1
				c25.6-12.5,57.4-28.1,81.6-21.6c18.2,4.9,29.7,18.9,40.8,32.5c13.2,16.1,25.7,31.4,48.5,33c10.2,0.7,20.5-0.9,30.5-2.5
				c6.5-1,13.2-2.1,19.9-2.5c21.4-1.4,40.9-1.3,59.7,0.3c12.5,1,25.1,2.4,37.3,3.8c31.7,3.5,61.6,6.9,93.2,4.7l0.2,3.2
				C800.7-120.5,793.9-120.3,787.1-120.3z"/>
		</g>
		<g>
			<path d="M800.9-102c-27.2,0-53.6-4.9-79.2-9.7c-16.9-3.1-34.3-6.4-52-8.2c-15.7-1.6-36.2-3.1-55,0.7c-6.1,1.2-12.3,3-18.2,4.7
				c-13.4,3.9-27.2,7.9-42,5.8c-21.1-2.9-34.7-19-47.9-34.6c-13.9-16.5-27.1-32.1-48.4-32.8c-23.6-0.8-50.5,11.6-74.2,22.5
				c-8,3.7-15.6,7.2-22.7,10c-1.7,0.7-3.4,1.4-5.1,2.1c-28.5,11.5-60.7,24.5-91.2,18.6c-17.2-3.3-29.7-13.4-41.8-23.2
				c-5.8-4.7-11.7-9.5-18.2-13.6c-39.7-25.3-85.3-6.3-129.4,12.2C50.5-136.9,24.3-126,0.1-124.2l-0.2-3.2
				c23.6-1.8,48.4-12.1,74.7-23.1c44.8-18.8,91.2-38.1,132.4-11.9c6.6,4.2,12.6,9.1,18.5,13.8c12.3,10,24,19.4,40.4,22.5
				c29.6,5.7,61.4-7.1,89.4-18.4c1.7-0.7,3.4-1.4,5.1-2.1c7.1-2.8,14.6-6.3,22.5-10c24-11.1,51.3-23.6,75.7-22.8
				c22.8,0.8,37,17.7,50.8,34c12.7,15.1,25.9,30.7,45.8,33.4c14.1,1.9,27-1.8,40.7-5.7c6-1.7,12.2-3.5,18.5-4.8
				c19.2-3.8,40-2.4,56-0.7c17.8,1.9,35.3,5.1,52.2,8.3c28.5,5.3,58,10.8,88.4,9.4l0.2,3.3C807.6-102.1,804.2-102,800.9-102z"/>
		</g>
		<g>
			<path d="M811.9-83c-29.6,0-57-7.7-83.6-15.1c-16.2-4.5-32.9-9.2-50-12.1c-14.4-2.5-35.8-5.2-55.1,0c-7.6,2-15,5-22.3,7.8
				c-14.5,5.7-29.4,11.5-46.1,10.7c-24.2-1.1-39.9-18.7-55.1-35.6c-15.7-17.5-30.5-33.9-53.7-33.4c-23.9,0.6-48.9,11.3-73.1,21.6
				c-8.6,3.7-16.7,7.1-24.7,10.1c-1.8,0.7-3.6,1.3-5.4,2c-28.6,10.7-61.1,22.9-91.2,16.8c-17-3.4-28.5-13.1-40.6-23.4
				c-5.5-4.7-11.3-9.5-17.6-13.7c-38-25.2-80.5-6.4-121.6,11.8C48.1-125,23.4-114,0.1-112.2l-0.2-3.2c22.7-1.7,47.1-12.6,70.7-23
				c41.9-18.5,85.1-37.7,124.7-11.5c6.4,4.3,12.3,9.2,17.9,13.9c11.8,10,23,19.5,39.2,22.7c29.2,5.9,61.2-6.1,89.4-16.7
				c1.8-0.7,3.6-1.4,5.4-2c7.9-2.9,16-6.4,24.5-10c24.5-10.4,49.8-21.2,74.3-21.8c24.8-0.6,40.7,17.2,56.2,34.5
				c14.7,16.4,30,33.4,52.8,34.5c16,0.8,30-4.7,44.8-10.5c7.3-2.9,14.9-5.8,22.6-7.9c19.9-5.4,41.8-2.6,56.5-0.1
				c17.3,3,34.1,7.7,50.3,12.2c28.4,7.9,55.2,15.4,85.2,14.9l0,3.3C813.6-83,812.7-83,811.9-83z"/>
		</g>
		<g>
			<path d="M818.1-63.6c-30.2-0.7-56.8-11.1-82.4-21.1c-15.2-5.9-30.9-12.1-47.5-16.3c-22.2-5.7-39.7-5.9-55-0.8
				c-8.8,3-17.4,7-25.7,10.9c-16,7.6-32.5,15.4-51.5,15.8c-0.5,0-0.9,0-1.4,0c-26.7,0-44.4-18.4-61.5-36.2
				c-17.6-18.2-34.1-35.4-59.5-34c-23.6,1.4-48,11.1-71.6,20.4c-9.4,3.8-18.4,7.3-27.2,10.3c-1.9,0.6-3.8,1.3-5.7,2
				c-28.8,9.9-61.4,21.2-91.1,15c-16.8-3.5-27.8-13.3-39.4-23.6c-5.3-4.7-10.8-9.6-16.9-13.9c-36.4-25.2-75.6-6.6-113.5,11.3
				C45.6-113,22.4-102,0.1-100.3l-0.3-3.2c21.7-1.7,44.6-12.5,66.7-23c38.7-18.3,78.8-37.3,116.8-11c6.3,4.3,11.9,9.3,17.3,14.1
				c11.3,10.1,22,19.6,37.9,22.9c28.8,6,61-5.1,89.4-14.9c1.9-0.7,3.9-1.3,5.7-2c8.7-3,17.6-6.5,27-10.3
				c23.8-9.5,48.5-19.3,72.6-20.7c26.8-1.5,44.7,17,62,35c16.7,17.3,33.9,35.2,59.2,35.2c0.4,0,0.9,0,1.3,0
				c18.2-0.4,34.5-8.1,50.2-15.5c8.4-4,17.1-8.1,26.1-11.1c20.9-7,42.5-3,56.9,0.7c16.8,4.3,32.6,10.5,47.9,16.4
				c26.6,10.4,51.7,20.2,81.3,20.9L818.1-63.6z"/>
		</g>
		<g>
			<path d="M821.6-44.3C791.5-46.2,768-58.5,743-71.5c-13.5-7.1-27.5-14.4-42.7-19.9c-21.1-7.6-38-8.8-53.3-3.6
				c-11.7,4-22.7,9.9-33.4,15.7c-15.4,8.3-31.4,17-49.9,19.9c-34.4,5.4-55.5-15.3-75.8-35.4c-17.9-17.6-34.8-34.3-60.4-35.2
				c-23.1-0.8-49.7,9.4-73.2,18.5c-9.3,3.6-18.2,7-26.6,9.7c-2.8,0.9-5.7,1.9-8.7,2.8C289.2-89.2,252-77.1,221-85.4
				c-14.9-4-25.2-13.8-35.2-23.2c-5.5-5.2-11.2-10.6-17.7-15c-34.5-23.7-68.4-6.4-104.2,11.9C43-101.1,21.5-90,0.1-88.3l-0.3-3.2
				c20.7-1.6,42-12.5,62.6-23c35.1-17.9,71.4-36.5,107.5-11.7c6.7,4.6,12.5,10.1,18.1,15.4c10.1,9.6,19.7,18.6,33.8,22.4
				c30.1,8.1,66.8-3.9,96.4-13.5c3-1,5.9-1.9,8.7-2.8c8.3-2.7,17.1-6,26.4-9.6c23.8-9.2,50.7-19.6,74.5-18.7
				c26.8,1,45,18.8,62.5,36.1c20.7,20.4,40.2,39.6,73,34.5c17.9-2.8,33.6-11.3,48.8-19.5C622.9-88,634-94.1,646-98.1
				c16.1-5.4,33.7-4.3,55.5,3.6c15.3,5.6,29.4,12.9,43.1,20.1c24.6,12.9,47.9,25.1,77.3,26.9L821.6-44.3z"/>
		</g>
		<g>
			<path d="M824.9-25.4c-29.9-3.2-51.6-17.8-74.5-33.2c-12.5-8.4-25.4-17.1-39.7-23.8c-34.6-16.1-61.7-0.7-90.5,15.6
				c-16.8,9.5-34.2,19.4-53.8,23.3c-5.3,1.1-10.3,1.5-15,1.5c-29.4,0-49.4-18.7-68.8-36.9c-19.7-18.4-38.2-35.7-65.9-36.1
				c-22.7-0.3-47.6,8.8-71.7,17.7c-10.4,3.8-20.2,7.4-29.6,10.1c-3,0.9-6,1.8-9.1,2.7c-30.1,9-67.6,20.2-98.1,11.7
				c-14.7-4.1-24.6-13.9-34.1-23.4c-5.3-5.3-10.8-10.7-17-15.2c-33.3-23.7-64.2-6.7-97,11.4C40.7-89.2,20.7-78.1,0.1-76.4l-0.3-3.2
				c19.8-1.6,39.6-12.5,58.7-23.1c32.2-17.8,65.5-36.2,100.5-11.2c6.5,4.6,12,10.2,17.4,15.5c9.7,9.6,18.8,18.7,32.7,22.6
				c29.6,8.2,66.6-2.8,96.3-11.7c3.1-0.9,6.2-1.8,9.1-2.7c9.3-2.7,19-6.3,29.4-10.1c24-8.8,48.8-17.9,71.8-17.9c0.4,0,0.7,0,1.1,0
				c28.9,0.4,48.8,19,68.1,37c23,21.5,44.7,41.8,81,34.5c19.1-3.8,36.2-13.6,52.8-23c29.5-16.7,57.3-32.5,93.4-15.7
				c14.6,6.8,27.6,15.6,40.2,24.1c22.6,15.2,43.9,29.6,73,32.7L824.9-25.4z"/>
		</g>
		<g>
			<path d="M827.9-7.4c-29.8-4.3-49.7-21-70.7-38.7c-11.4-9.6-23.2-19.6-36.9-27.4c-34.8-19.9-64.8-1-96.7,19
				c-17.5,11-35.5,22.4-54.6,26.9c-39,9.2-63.1-7.7-88.4-29.2c-3.6-3-7.1-6.2-10.8-9.5c-17.8-16-38-34.2-62.9-34.1
				c-22.2,0.1-46.4,8.6-69.9,16.9c-11.5,4-22.3,7.9-32.7,10.6c-3.1,0.8-6.3,1.7-9.6,2.6c-30.2,8.3-67.8,18.6-97.8,10.1
				c-14.5-4.2-24-14-33.2-23.6c-5.1-5.3-10.3-10.8-16.4-15.3c-32.3-23.9-60.6-7-90.7,10.9C38.7-77.3,20-66.1,0.1-64.5l-0.3-3.2
				c19.1-1.6,37.5-12.5,55.3-23.2c29.6-17.7,60.3-35.9,94.3-10.7c6.3,4.7,11.7,10.3,16.9,15.7c9.3,9.7,18,18.8,31.7,22.7
				c29.1,8.3,66.2-1.9,96-10.1c3.3-0.9,6.5-1.8,9.6-2.6c10.3-2.8,21.1-6.6,32.5-10.6c23.7-8.3,48.2-17,70.9-17.1
				c26.1-0.2,46.8,18.5,65,34.9c3.7,3.3,7.2,6.5,10.7,9.5c25.5,21.6,48,37.4,85.5,28.5c18.5-4.4,36.3-15.6,53.6-26.5
				c31.2-19.7,63.5-40,100-19.1c13.9,7.9,25.8,18,37.3,27.7c20.6,17.4,40.1,33.8,69,38L827.9-7.4z"/>
		</g>
		<g>
			<path d="M830.3,9.5c-29.9-5.2-48.2-23.7-67.5-43.3c-10.5-10.6-21.3-21.6-34.2-30.3c-34.4-23.2-68.8,0.2-102,22.9
				c-18.1,12.3-36.7,25-55.1,29.9c-38.2,10.2-62.5-2.3-94.1-28.9c-3.9-3.3-7.7-6.7-11.7-10.3c-18.8-16.9-40.1-36.1-66.3-35.6
				c-21.6,0.4-45.1,8.4-67.9,16.3c-12.5,4.3-24.4,8.4-35.8,11.2c-3.3,0.8-6.7,1.7-10.2,2.6c-30.3,7.7-67.9,17.2-97.4,8.6
				c-14.4-4.2-23.5-14.1-32.4-23.7c-4.9-5.3-10-10.8-15.9-15.4c-31.6-24.1-57.8-7.3-85.6,10.5C37-65.4,19.4-54.1,0.1-52.5l-0.3-3.2
				C18.3-57.3,35.6-68.3,52.3-79c27.5-17.6,56-35.8,89.4-10.3C147.8-84.6,153-79,158-73.6c8.9,9.7,17.3,18.8,30.9,22.8
				c28.7,8.4,65.8-1.1,95.7-8.6c3.5-0.9,6.9-1.8,10.2-2.6c11.3-2.8,23.1-6.8,35.5-11.1c23-7.9,46.8-16.1,68.9-16.4c0.3,0,0.6,0,1,0
				c27,0,48.5,19.3,67.5,36.4c4,3.6,7.8,7,11.7,10.3c30.8,25.9,54.4,38.1,91.2,28.3c17.8-4.8,36.2-17.3,54.1-29.5
				c34.1-23.2,69.5-47.3,105.7-22.9c13.2,8.9,24.1,20,34.7,30.7c19,19.2,36.9,37.4,65.8,42.4L830.3,9.5z"/>
		</g>
		<g>
			<path d="M832,24.9c-30.1-5.5-47.2-25.5-65.3-46.7c-9.8-11.4-19.9-23.3-32.2-32.6c-17.7-13.4-31.9-15.1-50.3-6.3
				c-16.3,7.8-31.1,18.6-45.4,29C618.8-17.2,598.2-2.2,573,5.2C532.6,17,507.3,4.1,474.7-24c-4.1-3.5-8.2-7.3-12.5-11.3
				c-19.3-17.9-41.3-38.1-68.4-37.5c-20.9,0.5-43.8,8.3-65.9,15.8c-13.5,4.6-26.2,8.9-38.5,11.7c-3.5,0.8-7.1,1.6-10.8,2.5
				c-30.3,7.1-67.9,16-97,7.4c-14.3-4.2-23.2-14.2-31.8-23.8C145-64.5,140-70,134.2-74.6C103-99.1,78.2-82.3,52-64.5
				c-16.2,11-33,22.4-51.9,23.9l-0.3-3.2c18-1.5,34.4-12.6,50.3-23.4c26-17.6,52.9-35.9,86-10c6.1,4.8,11.1,10.4,16,15.9
				c8.6,9.7,16.8,18.9,30.3,22.9c28.2,8.4,65.4-0.4,95.3-7.5c3.7-0.9,7.4-1.7,10.9-2.5c12.1-2.8,24.8-7.1,38.2-11.6
				c22.4-7.6,45.5-15.5,66.9-16c28.5-0.7,50.9,20.1,70.7,38.4c4.3,4,8.3,7.7,12.4,11.2c31.8,27.3,56.4,40,95.3,28.6
				c24.6-7.2,45-22.1,64.7-36.4c14.4-10.5,29.4-21.4,45.9-29.3c19.8-9.4,34.8-7.6,53.7,6.7c12.6,9.5,22.8,21.5,32.7,33
				c17.7,20.7,34.4,40.3,63.4,45.6L832,24.9z"/>
		</g>
		<g>
			<path d="M832.8,38.5c-30.6-5.1-47.8-27.2-64.4-48.5c-8.9-11.5-18.2-23.3-29.5-32.7c-16.4-13.6-30.5-16.4-47.2-9.2
				c-19,8.1-35.7,21.4-51.8,34.2c-17.7,14-35.9,28.5-57.7,36.9c-25.4,9.8-46.9,10.2-67.7,1.2c-18.4-7.9-34.4-22-55-41.1l-1.9-1.7
				c-23.1-21.4-47.1-43.6-80.6-35.2c-13.7,3.4-27.5,7.6-40.7,11.6c-18.3,5.5-37.1,11.3-56.4,15.2c-3.6,0.7-7.5,1.6-11.4,2.4
				c-29.5,6.3-66.1,14.1-93.2,4.4c-12.8-4.6-20.9-14-28.7-23.2c-5-5.8-10.1-11.8-16.3-16.5c-19-14.3-47.6-14.1-67.8,0.4
				c-6,4.3-10.9,8.5-15.6,12.6C33.9-39.9,22.9-30.5,0.1-28.6l-0.3-3.2c21.7-1.7,31.9-10.4,44.7-21.4c4.8-4.1,9.8-8.4,15.9-12.7
				c21.4-15.3,51.5-15.5,71.7-0.4c6.5,4.9,11.8,11,16.9,16.9c7.9,9.2,15.4,18,27.4,22.3c26.2,9.4,62.4,1.7,91.4-4.5
				c4-0.8,7.8-1.7,11.5-2.4c19.1-3.9,37.9-9.6,56.1-15.1c13.3-4,27.1-8.2,40.9-11.7c35.3-8.8,59.9,14,83.6,36l1.9,1.7
				C498,10.5,526.7,37,581,16.1c21.3-8.2,39.4-22.6,56.9-36.5c16.3-12.9,33.2-26.3,52.5-34.6c18-7.7,33.1-4.8,50.5,9.7
				c11.6,9.6,21,21.6,30,33.2c17,21.8,33.1,42.4,62.4,47.3L832.8,38.5z"/>
		</g>
		<g>
			<path d="M832.6,50.1c-29.9-6.1-46.2-26.6-63.4-48.3c-9.2-11.6-18.8-23.6-30.5-33.1c-16.3-13.2-30.4-15.8-47.1-8.5
				c-18.7,8.2-35.1,21.2-51,33.8c-17.8,14.1-36.2,28.7-58.3,37.2c-56,21.4-87-6.8-122.8-39.5l-2.2-2.1
				c-23.1-21.1-46.9-42.9-80.3-35.4c-15.3,3.4-30.7,8-45.6,12.4c-16.6,4.9-33.7,10-50.9,13.6c-3.7,0.8-7.5,1.6-11.5,2.5
				C239.7-11,203.4-3,176.3-12.8c-12.6-4.6-21.2-13.7-29.5-22.5c-5.2-5.6-10.6-11.3-17-15.9C110.5-65,82.6-65.5,62-52.6
				c-7.4,4.7-13.3,9.7-19,14.5C31.4-28.2,20.6-18.9,0.2-16.7l-0.3-3.2c19.4-2.1,29.4-10.7,41-20.6c5.8-4.9,11.8-10,19.4-14.8
				c21.7-13.6,51.1-13,71.4,1.5c6.6,4.7,12.1,10.6,17.5,16.3c8.4,8.9,16.3,17.4,28.2,21.7c26.3,9.5,62.1,1.6,90.8-4.7
				c4-0.9,7.9-1.7,11.6-2.5c17.1-3.6,34.2-8.6,50.7-13.5c14.9-4.4,30.3-9,45.8-12.4c35-7.8,59.5,14.5,83.2,36.2l2.2,2.1
				c40.5,36.9,67.9,58.6,119.4,38.9c21.6-8.2,39.8-22.7,57.4-36.7c16-12.7,32.6-25.9,51.7-34.3c17.9-7.9,33-5.2,50.4,8.9
				c12.1,9.8,21.7,21.9,31,33.6c16.9,21.2,32.8,41.3,61.5,47.1L832.6,50.1z"/>
		</g>
		<g>
			<path d="M831.3,59.6c-28.3-7.3-44.5-26.2-61.6-46.3c-10.3-12.1-21-24.6-34.6-34.2c-17.6-12.5-31.1-13.6-49.7-4
				c-15.7,8.1-30,18.9-43.9,29.3C620.9,20,599.6,36,573.2,43.8c-40.7,12-67.4-1.6-99.8-29.2c-4.5-3.8-8.9-7.9-13.6-12.3
				c-19.4-17.9-41.3-38.1-68.3-38.7c-21.5-0.4-45.3,7.2-68.3,14.6c-11.9,3.8-23,7.4-33.8,9.9c-3.5,0.8-7.2,1.7-10.9,2.6
				c-29.3,7-65.8,15.8-94.8,7.6c-14-4-24.3-12.8-34.3-21.4c-5.5-4.7-11.2-9.6-17.4-13.6c-20.3-13.1-47.5-15.2-69.3-5.3
				c-9.7,4.4-17.1,10.7-24.2,16.8C27.7-15.9,17.5-7.3,0.2-4.8L-0.2-8C16.1-10.3,26-18.7,36.4-27.6c7.3-6.2,14.9-12.6,25-17.3
				c22.8-10.4,51.2-8.2,72.4,5.5c6.4,4.2,12.2,9.1,17.7,13.9c10.2,8.7,19.8,17,33.1,20.8c28.2,8,64.2-0.6,93.2-7.6
				c3.7-0.9,7.4-1.8,10.9-2.6c10.6-2.5,21.7-6,33.5-9.8c23.2-7.5,47.3-15.2,69.3-14.8C419.7-39,442.2-18.3,462-0.1
				c4.7,4.3,9.1,8.4,13.5,12.2c32.3,27.5,57.3,40.2,96.7,28.6c25.8-7.6,46.9-23.5,67.3-38.8c14-10.5,28.4-21.3,44.4-29.6
				c19.6-10.2,34.5-9,53.1,4.2c13.9,9.9,24.7,22.5,35.2,34.8c16.8,19.7,32.7,38.2,60,45.2L831.3,59.6z"/>
		</g>
		<g>
			<path d="M829.3,67.5c-26.6-7.8-43.8-25.9-60.3-43.4c-11.2-11.9-22.8-24.1-37.4-33.4C714-20.5,700-21.2,681.8-11.8
				C666.9-4.1,653.2,5.9,640,15.5c-20.6,15-41.9,30.5-68,37.8c-39.5,11-65.9-2.2-98.2-28.7c-4.6-3.8-9.2-7.8-14-12.1
				C439.7-5.5,418.8-24,392.6-25.2c-22.2-1.1-46.6,6.5-70.1,13.8c-10,3.1-19.4,6-28.5,8.3c-2.9,0.7-5.9,1.5-9,2.2
				c-30.1,7.5-64.1,16.1-94.1,8.8c-14.2-3.5-26.1-11.2-37.5-18.7c-6.3-4.1-12.7-8.3-19.5-11.8c-21.6-11.1-48.8-13.9-71-7.2
				c-11.5,3.4-19.9,10.7-28,17.7C25.3-3.9,15.3,4.6,0.3,7.2l-0.5-3.2C13.9,1.6,23-6.3,32.7-14.7c8.4-7.2,17-14.7,29.2-18.3
				c23-6.9,51.1-4,73.5,7.5c6.9,3.6,13.5,7.8,19.8,12C166.9-5.9,178,1.3,191.7,4.6c29.2,7.1,62.9-1.3,92.6-8.8c3-0.8,6-1.5,9-2.2
				c9-2.2,18.4-5.1,28.3-8.2c23.8-7.4,48.5-15.1,71.3-13.9c27.4,1.3,49.6,21.1,69.1,38.5c4.8,4.3,9.4,8.3,13.9,12.1
				c32.2,26.5,56.9,38.8,95.2,28.1c25.6-7.1,46.7-22.4,67-37.3c13.3-9.7,27.1-19.8,42.2-27.5c19.5-10,34.3-9.3,53,2.6
				c14.9,9.5,26.7,21.9,38,33.9c17,18,33.1,35,58.9,42.5L829.3,67.5z"/>
		</g>
		<g>
			<path d="M826.6,74c-24.7-7.7-42-24-58.8-39.7c-12.4-11.6-25.2-23.6-40.9-32.2c-17.8-9.7-31.8-9.9-49.9-0.5
				c-13.9,7.1-26.8,16.3-39.3,25.1c-20.5,14.4-41.6,29.4-67.5,36.1c-8.7,2.2-16.8,3.3-24.4,3.3c-25.9,0-47-12.2-71.6-31.9
				c-4.7-3.8-9.4-7.8-14.3-12.1C440,5.1,419.5-12.5,394.2-14.7c-23.1-1.9-48,5.6-72.1,13c-7.7,2.3-15,4.5-22.1,6.4l-4,1.1
				c-30,7.9-63.9,16.8-95.7,10.8c-14.9-2.8-28.5-9.1-41.6-15.2C151.4-2,144-5.4,136.5-8.2c-23.2-8.7-50.7-12.1-73.6-8.9
				C49.7-15.4,41-7.6,31.9,0.5c-8.8,7.9-18,16-31.6,18.6l-0.6-3.2c12.7-2.4,21.1-9.9,30-17.8c9.1-8.1,18.6-16.5,32.7-18.5
				c23.4-3.2,51.5,0.2,75.2,9.1c7.6,2.9,15.1,6.3,22.3,9.7c13,6,26.4,12.2,40.9,15c31.1,5.9,63.2-2.6,94.3-10.8l4-1.1
				c7-1.8,14.3-4,21.9-6.4c24.4-7.4,49.6-15.1,73.3-13.1c26.4,2.2,48.2,21,67.4,37.6c4.9,4.3,9.6,8.3,14.2,12
				c31.2,24.9,56.4,37.4,93.2,27.9c25.3-6.5,46.2-21.3,66.5-35.6c12.6-8.9,25.6-18.1,39.7-25.3c19-9.8,34.4-9.6,53,0.6
				c16.1,8.8,29,20.9,41.6,32.6c17.3,16.2,33.6,31.4,57.6,39L826.6,74z"/>
		</g>
		<g>
			<path d="M823.4,79.5c-22.2-7.2-39.4-21.3-55.9-34.9c-14.1-11.5-28.6-23.5-46-31c-33.7-14.4-65,7-95.2,27.7
				c-18.9,12.9-38.3,26.3-58.4,31c-7.3,1.7-14.2,2.5-20.7,2.5c-32.9,0-56.5-20-79.5-39.5C446.7,17.6,425-0.9,396-4.4
				c-24.2-3-50.8,5.1-74.3,12.2c-5.1,1.5-9.8,3-14.6,4.3c-33.5,9.5-63.8,17-95.9,12.8c-15.9-2.1-31.4-6.7-46.4-11.2
				c-8.2-2.4-16.6-5-25-7.1c-24.2-6-52.2-9.8-76.8-10.5c-14.9-0.4-23.8,8-33.3,16.8C21.5,20.6,13,28.5,0.3,31l-0.6-3.2
				c11.8-2.4,19.9-10,27.8-17.3C37,1.6,46.9-7.6,63-7.2c24.8,0.7,53,4.5,77.5,10.6c8.5,2.1,17,4.6,25.2,7.1
				c14.9,4.5,30.2,9.1,45.9,11.1c31.5,4.1,61.5-3.3,94.6-12.7c4.7-1.3,9.5-2.8,14.5-4.3c23.8-7.2,50.8-15.3,75.7-12.3
				c29.9,3.7,52,22.4,73.3,40.5c28.1,23.8,54.6,46.4,97.3,36.3c19.5-4.6,38.7-17.8,57.3-30.5c31-21.2,63-43.2,98.3-28
				c17.8,7.6,32.6,19.7,46.8,31.4c16.4,13.4,33.3,27.3,54.9,34.3L823.4,79.5z"/>
		</g>
		<g>
			<path d="M819.9,84.4c-19.9-6.6-36.8-18.6-53.2-30.1c-16-11.3-32.5-22.9-51.3-29.2c-33.2-11-61.2,7.5-90.9,27.1
				c-18.9,12.5-38.4,25.4-59.3,29.8c-42.9,9.1-71.1-14.5-98.4-37.3c-20.4-17-41.4-34.5-68.7-39.1c-25.8-4.3-53.3,4.2-77.5,11.8
				c-1.9,0.6-3.8,1.2-5.6,1.7c-32.2,9.9-60.1,16-91.8,13.7c-17.4-1.3-34.8-4.1-51.7-6.9c-9.2-1.5-18.8-3.1-28.2-4.4
				c-8.8-1.2-17.8-1.8-26.5-2.5c-5.8-0.4-11.7-0.8-17.6-1.4c-7.8-0.8-14.9-2.7-21.8-4.5c-4.6-1.2-9.4-2.5-14.4-3.5
				c-16.4-3.1-25.4,5.8-34.9,15.3c-7.7,7.6-15.6,15.5-27.8,18l-0.7-3.2c11.3-2.4,18.9-9.9,26.2-17.2C35.6,13,45.6,3.1,63.7,6.5
				c5.1,1,9.9,2.3,14.6,3.5c7,1.9,13.7,3.7,21.2,4.4c5.8,0.6,11.8,1,17.5,1.4c8.7,0.6,17.8,1.3,26.7,2.5c9.4,1.3,19,2.9,28.3,4.4
				c16.8,2.7,34.1,5.6,51.4,6.9c31.2,2.3,58.8-3.8,90.6-13.6c1.9-0.6,3.7-1.2,5.6-1.7C344.2,6.6,372-2,398.6,2.4
				c28.1,4.7,49.5,22.5,70.2,39.8c27.9,23.3,54.3,45.3,95.7,36.6c20.3-4.3,39.5-17,58.2-29.3c29-19.2,59-39,93.7-27.4
				c19.3,6.4,36,18.2,52.2,29.6c16.2,11.4,33,23.2,52.4,29.7L819.9,84.4z"/>
		</g>
		<g>
			<path d="M545.9,93.3c-33.2,0-57.7-20.2-81.6-39.8C443,36,421,17.9,393,14.3c-25.7-3.2-50.2,5-73.8,13l-0.3,0.1
				c-47.5,16-94,13.4-143.2,10.7c-8.4-0.5-17.1-1-25.8-1.3c-7.3-0.3-14.7-0.4-21.9-0.6c-8.6-0.1-17.4-0.3-26.1-0.8
				c-11.3-0.6-18.7-3.8-27.3-7.4c-3.3-1.4-6.7-2.8-10.6-4.2c-18.3-6.6-26.8,2.4-36.6,12.8c-7.3,7.7-14.8,15.6-27.1,18.3l-0.7-3.2
				c11.3-2.5,18.5-10.1,25.4-17.4c10.2-10.7,19.8-20.9,40.1-13.6c3.9,1.4,7.4,2.9,10.7,4.3c8.3,3.5,15.5,6.6,26.2,7.2
				c8.6,0.5,17.5,0.6,26,0.8c7.2,0.1,14.6,0.2,21.9,0.6c8.7,0.4,17.4,0.9,25.8,1.3c48.9,2.7,95.1,5.3,142-10.5l0.3-0.1
				c24-8.1,48.8-16.5,75.2-13.1c28.9,3.6,51.3,22,73,39.8c26.7,21.9,51.8,42.6,88.4,38.6c23.9-2.6,45.2-16.1,65.8-29.2
				c26.8-17,54.6-34.5,87.7-27.4c21.7,4.7,41.4,16.6,60.5,28.1c15.5,9.4,31.5,19,48.5,24.7l-1,3.1c-17.3-5.8-33.5-15.6-49.2-25
				c-18.8-11.4-38.3-23.1-59.5-27.7c-31.8-6.9-57.8,9.5-85.3,26.9c-20.9,13.2-42.5,26.9-67.2,29.6C552,93.1,548.9,93.3,545.9,93.3z"
				/>
		</g>
		<g>
			<path d="M545.8,102.3c-33.4,0-58.5-20.3-82.8-39.9c-20.4-16.5-41.6-33.6-67.6-38.6c-24.8-4.7-46.2,2.3-67.8,10.4
				C285,50.4,238,50.7,192.5,51c-12.7,0.1-25.8,0.2-38.5,0.6c-5.2,0.2-10.5,0.5-15.7,0.8c-11.8,0.7-24,1.4-35.8,0.7
				c-12.8-0.7-20-5-28.4-9.9c-3-1.8-6.1-3.6-9.8-5.5c-19.5-9.9-27.4-1-37.4,10.2C20.2,55.5,12.6,64,0.4,66.8l-0.7-3.2
				c11.2-2.6,18.2-10.4,24.8-17.9c10-11.3,19.5-22.1,41.3-11c3.7,1.9,6.9,3.8,10,5.6c8.4,5,15,8.9,26.9,9.5
				c11.6,0.6,23.7-0.1,35.4-0.7c5.2-0.3,10.6-0.6,15.8-0.8c12.7-0.4,25.9-0.5,38.6-0.6c45.2-0.3,91.8-0.6,134-16.5
				c22-8.3,44-15.4,69.6-10.6c26.8,5.1,48.3,22.4,69,39.2c26.6,21.5,51.7,41.9,87.3,38.9c24.7-2,46.2-15,67-27.5
				c25-15.1,50.9-30.7,82.2-26.8c24.1,3,46.7,14.7,68.6,26c14.1,7.3,28.8,14.8,43.4,19.8l-1,3.1c-14.9-5-29.6-12.6-43.8-20
				c-21.7-11.2-44-22.7-67.5-25.6c-30.2-3.8-54.5,10.9-80.1,26.3c-21.1,12.7-42.9,25.9-68.4,28C550.3,102.2,548,102.3,545.8,102.3z"
				/>
		</g>
		<g>
			<path d="M546,111.5c-33.9,0-59.7-20.5-84.7-40.4c-19.5-15.5-39.7-31.5-63.5-37.7c-22.7-5.8-40.5-1.3-61.8,7.8
				c-23.4,10.1-43.9,13-71.2,14.7c-24.7,1.5-49.6,4.3-73.8,6.9c-10.9,1.2-22.1,2.4-33.1,3.5c-4.6,0.5-9.4,1-14,1.6
				c-13.6,1.6-27.6,3.3-40.9,2.6c-13.8-0.7-20.8-6.1-29-12.3c-2.9-2.2-5.9-4.5-9.5-6.9C44,38,36.3,47.3,26.6,59
				c-6.5,7.9-13.9,16.8-26.2,19.7l-0.8-3.2c11.3-2.7,18-10.8,24.5-18.6c9.9-12,19.2-23.3,42.2-8.3c3.7,2.4,6.7,4.7,9.7,7
				c8,6.2,14.3,11,27.1,11.7c13.1,0.7,26.9-1,40.4-2.6c4.6-0.6,9.4-1.1,14.1-1.6c11-1.1,22.2-2.3,33.1-3.5c24.2-2.6,49.2-5.4,74-6.9
				c27-1.7,47.1-4.6,70.1-14.5c21.3-9.2,40.4-14,63.9-8c24.5,6.3,45,22.6,64.7,38.3c26.7,21.3,52,41.3,86.8,39.5
				c25.4-1.3,47.3-13.9,68.5-26C642,68.7,666.2,54.9,695.2,56c27.1,1.1,53.2,12.7,78.5,24c12,5.4,24.4,10.9,36.4,15l-1.1,3.1
				c-12.2-4.2-24.6-9.7-36.7-15.1c-24.9-11.1-50.7-22.7-77.3-23.7c-28.1-1.1-50.8,11.9-74.8,25.7c-21.5,12.3-43.7,25.1-70,26.4
				C548.9,111.4,547.4,111.5,546,111.5z"/>
		</g>
		<g>
			<path d="M546.8,120.7c-33.5,0-61.5-21.1-88.6-41.5c-36-27-70-52.6-114.5-30.7C320.4,60,300.8,61.8,276,64
				c-26.5,2.4-53.2,6.9-79.1,11.1c-11.7,1.9-23.7,3.9-35.6,5.7c-4.4,0.7-8.8,1.4-13.4,2.2c-14.8,2.6-30.1,5.2-44.5,4.5
				C88.7,86.8,81.9,80.4,74,72.9c-2.8-2.7-5.7-5.4-9.2-8.2C51.9,54.6,43.1,49.3,30,60.9c-4,3.5-6.1,8.3-8.2,13.1
				C18,82.4,14.2,91.1,0,90.8L0,87.5c12,0.3,15.1-6.7,18.7-14.9c2.2-5,4.5-10.2,9-14.2c15-13.1,25.6-6.7,38.9,3.8
				c3.6,2.9,6.6,5.7,9.5,8.4c7.7,7.3,13.8,13,27.3,13.8c14,0.7,29.1-1.9,43.8-4.4c4.7-0.8,9.1-1.6,13.5-2.2
				c11.9-1.8,23.9-3.8,35.6-5.7c25.9-4.3,52.7-8.7,79.3-11.2c24.5-2.2,43.9-4,66.5-15.2c46.3-22.8,82.7,4.6,117.9,31
				c27.1,20.4,55.1,41.4,88.1,40.8c26.1-0.5,48.7-12.8,70.6-24.7c21.8-11.9,44.4-24.1,70.6-25.1c31.2-1.2,61.4,10.9,90.5,22.5
				c8.9,3.6,18.1,7.3,27,10.4l-1.1,3.1c-9-3.2-18.2-6.9-27.2-10.5c-28.8-11.5-58.6-23.5-89.2-22.3c-25.5,1-47.7,13.1-69.2,24.7
				c-22.2,12.1-45.2,24.6-72.1,25.1C547.8,120.7,547.3,120.7,546.8,120.7z"/>
		</g>
		<g>
			<path d="M547.9,130c-0.4,0-0.9,0-1.3,0c-30.5-0.4-58.6-21.5-85.7-41.8c-36.7-27.5-71.4-53.4-110.7-31.8
				c-20.7,11.4-38.1,13.3-60,15.7l-4.6,0.5c-28.1,3.1-56.4,9.1-83.7,14.8c-12.4,2.6-25.2,5.3-37.8,7.7c-4.2,0.8-8.5,1.7-13.1,2.7
				c-15.8,3.4-32.2,6.9-47.3,6c-16.3-0.9-23.8-9.5-32.5-19.4c-2-2.2-4-4.6-6.2-6.9c-14.1-14.7-24.5-16.6-36-6.4
				c-4,3.6-6,8.8-7.9,13.8c-3.3,8.8-6.7,17.9-21.1,17.8l0-3.3c0.1,0,0.3,0,0.4,0c11.7,0,14.4-7.3,17.6-15.7c2-5.4,4.1-11,8.7-15.1
				c16.4-14.6,30.3-4.2,40.5,6.6c2.3,2.4,4.3,4.7,6.3,7c8.6,9.8,15.4,17.5,30.3,18.3c14.7,0.8,30.8-2.6,46.4-5.9
				c4.6-1,8.9-1.9,13.2-2.7c12.6-2.4,25.4-5.1,37.7-7.7c27.4-5.8,55.7-11.7,84-14.9l4.6-0.5c22.4-2.5,38.6-4.2,58.8-15.3
				c41.1-22.7,78.3,5.1,114.2,32c26.7,20,54.4,40.7,83.8,41.1c26.7,0.4,50.3-11.9,73.2-23.7c20.2-10.5,41.2-21.3,64.6-23.9
				c36.6-3.9,71.5,9.4,105.4,22.3c4.8,1.8,9.7,3.7,14.5,5.5l-1.1,3.1c-4.8-1.8-9.7-3.7-14.5-5.5c-33.4-12.8-68-26-103.8-22.1
				c-22.8,2.5-43.4,13.2-63.4,23.5C598.5,117.7,574.8,130,547.9,130z"/>
		</g>
		<g>
			<path d="M549.7,139.3c-1.4,0-2.8,0-4.2-0.1c-35.1-1.7-64.3-22.9-92.6-43.4C436.8,84.1,420.2,72,403,64.1
				c-20.6-9.5-30.9-9.3-47.8,0.8c-20.1,11.9-35.6,13.8-57.1,16.3c-1.7,0.2-3.4,0.4-5.1,0.6c-29.5,3.6-58.9,10.8-87.4,17.7
				c-13,3.2-26.4,6.4-39.6,9.3c-4.1,0.9-8.3,1.9-12.7,3c-15.8,3.8-33.8,8.2-49.5,7.1c-17-1.1-24.6-11-33.4-22.5
				c-1.7-2.3-3.5-4.6-5.4-6.9c-7.8-9.6-15-14.5-21.9-15C38,74.2,33,76.3,27.9,81c-4.1,3.7-5.8,9.3-7.5,14.7
				c-2.9,9.3-5.8,18.9-20.4,18.9l0-3.3c12.2-0.1,14.6-7.8,17.3-16.7c1.8-5.8,3.7-11.8,8.4-16.2c5.7-5.2,11.7-7.7,17.7-7.2
				c7.8,0.6,15.7,5.9,24.2,16.2c1.9,2.4,3.7,4.7,5.5,7c8.3,10.9,15.4,20.2,31,21.2c15.2,1,32.9-3.3,48.5-7.1c4.5-1.1,8.7-2.1,12.8-3
				c13.2-2.9,26.6-6.1,39.5-9.3c28.6-7,58.1-14.2,87.7-17.8c1.8-0.2,3.5-0.4,5.1-0.6c21.9-2.6,36.4-4.3,55.8-15.9
				c19.7-11.7,31.6-9.8,50.9-0.9c17.5,8,34.2,20.2,50.4,32c27.9,20.3,56.7,41.2,90.8,42.8c27.4,1.3,52.2-11,76.2-22.9
				c18.7-9.3,38-18.9,58.7-22.3c43.5-7.2,85,9.4,121.6,24l-1.2,3c-36.2-14.5-77.3-30.9-119.9-23.8c-20.3,3.4-39.3,12.8-57.8,22
				C600.1,127.4,576.2,139.3,549.7,139.3z"/>
		</g>
		<g>
			<path d="M552,148.7c-2.3,0-4.6-0.1-7-0.3c-36.3-2.9-68.1-24.8-98.9-46c-14.5-10-28.3-19.5-42.4-27c-19.3-10.3-29.1-12-45.4-1.1
				c-19.2,12.9-33.2,14.5-54.5,17c-2,0.2-4,0.5-6.2,0.7c-30.4,3.7-60.7,11.8-89.9,19.7c-13.4,3.6-27.2,7.3-40.8,10.5
				c-3.8,0.9-7.8,1.9-11.9,3c-16.4,4.2-35,9.1-51.1,7.8c-17.3-1.3-25-12.5-33.1-24.3c-1.8-2.6-3.6-5.3-5.6-7.9
				c-8.1-10.8-15.6-16.4-22.9-17c-5.2-0.4-10.4,1.8-15.5,6.6c-4.2,3.9-5.7,10-7.1,15.8c-2.4,9.7-4.9,19.8-19.6,20.4l-0.1-3.3
				c12.3-0.5,14.3-8.6,16.6-18c1.5-6.3,3.1-12.8,8-17.4c5.8-5.5,11.9-8,18-7.4c8.3,0.7,16.5,6.7,25.2,18.3c2,2.7,3.9,5.4,5.7,8
				c8,11.6,14.9,21.7,30.6,22.9c15.6,1.2,33.9-3.5,50.1-7.7c4.2-1.1,8.1-2.1,12-3c13.6-3.2,27.4-6.9,40.7-10.5
				c29.4-7.9,59.8-16.1,90.4-19.8c2.1-0.3,4.2-0.5,6.2-0.7c20.8-2.4,34.6-4,53.1-16.5c17.9-12,29-9.6,48.7,1
				c14.3,7.6,28.1,17.1,42.7,27.2c30.4,21,61.8,42.7,97.3,45.5c28.3,2.2,54.2-10.2,79.3-22.2c17.2-8.3,35-16.8,53.6-20.7
				c41.2-8.6,78.9,2.5,122.9,21.8l-1.3,3C756.3,108,719.1,97,678.8,105.5c-18.2,3.8-35.8,12.3-52.8,20.4
				C602.5,137.2,578.4,148.7,552,148.7z"/>
		</g>
		<g>
			<path d="M555.1,157.7c-3.2,0-6.3-0.2-9.5-0.5c-37.9-4-71.7-26.3-104.5-47.8c-12.7-8.3-24.7-16.2-36.8-23
				c-18-10.1-28.3-13.6-45-1.6c-19.6,14.1-33.4,15.5-56.2,18l-4.2,0.5c-30.7,3.4-61.3,12-90.9,20.4c-13.4,3.8-27.3,7.8-41,11.1
				c-3.5,0.9-7,1.8-10.8,2.8c-16.7,4.4-35.6,9.4-52.1,8c-17.3-1.6-24.8-13-32.7-25.1c-1.8-2.8-3.7-5.7-5.7-8.5
				c-8.1-11.2-16-17.2-23.4-17.8c-5.3-0.5-10.7,1.8-15.8,6.8c-4.2,4-5.5,10.3-6.9,16.3c-2.2,10.1-4.5,20.5-19.4,21.2l-0.2-3.3
				c12.4-0.6,14.2-9,16.3-18.6c1.4-6.5,2.9-13.2,7.8-18c5.9-5.7,12.1-8.3,18.4-7.7c8.4,0.7,17.1,7.2,25.8,19.1
				c2.1,2.9,4,5.8,5.8,8.6c7.8,11.9,14.5,22.2,30.2,23.6c15.9,1.4,34.5-3.5,51-7.9c3.8-1,7.4-2,10.9-2.8
				c13.6-3.4,27.5-7.3,40.9-11.1c29.7-8.4,60.4-17.1,91.4-20.5l4.2-0.5c22.3-2.4,35.8-3.9,54.7-17.4c17.4-12.5,28.6-9.8,48.5,1.4
				c12.2,6.9,24.2,14.8,37,23.2c32.4,21.3,66,43.4,103.1,47.3c29,3.1,55.8-9.1,81.7-20.9c16.1-7.3,32.8-14.9,49.9-18.8
				c46.8-10.7,88.6,4.7,123.2,21.2l-1.4,2.9c-34.2-16.3-75.3-31.5-121.1-21c-16.8,3.8-33.3,11.3-49.3,18.6
				C605.5,146.7,581.3,157.7,555.1,157.7z"/>
		</g>
		<g>
			<path d="M564.1,168.2c-3.2,0-6.5-0.2-9.8-0.5c-36.7-3.7-69.4-23.8-101.1-43.1c-13.9-8.5-27.1-16.6-40.6-23.4
				c-21.5-10.8-36.3-11.5-54.6-2.6c-21,10.2-38.2,12.1-59.9,14.4c-2.3,0.2-4.7,0.5-7.1,0.8c-29.5,3.3-58.7,12.2-87,20.8
				c-12.5,3.8-25.5,7.8-38.2,11.2c-3,0.8-6.2,1.7-9.5,2.6c-16.1,4.5-34.3,9.7-50.3,8.3c-16.3-1.4-24-11.9-32.2-23
				c-2-2.6-4-5.4-6.1-8c-7.9-9.6-15.5-14.7-22.8-15.3c-5.5-0.4-11,1.9-16.4,6.9c-3.9,3.6-5.6,9.2-7.4,14.6
				c-3,9.3-6.3,19.7-21.2,18.6l0.3-3.2c12.3,0.9,14.9-7.1,17.8-16.3c1.9-5.8,3.8-11.8,8.3-16c6-5.6,12.4-8.2,18.8-7.7
				c8.2,0.6,16.6,6.1,25.1,16.4c2.2,2.7,4.3,5.5,6.2,8.1c8.1,11,15.1,20.4,29.9,21.7c15.4,1.3,33.3-3.7,49.1-8.2
				c3.3-0.9,6.5-1.8,9.5-2.6c12.7-3.4,25.6-7.3,38.1-11.1c28.4-8.7,57.8-17.7,87.6-20.9c2.4-0.3,4.8-0.5,7.1-0.8
				c21.4-2.3,38.3-4.1,58.8-14.1c22.1-10.8,38.4-7,57.5,2.6c13.7,6.9,27.5,15.3,40.9,23.5c31.3,19.2,63.7,39,99.7,42.7
				c28.8,2.9,55.4-8.2,81.2-19c15.7-6.6,31.9-13.4,48.6-17c44.2-9.7,84.2,4.8,117.5,20.1l-1.4,3c-32.8-15.1-72.2-29.4-115.5-19.9
				c-16.4,3.6-32.4,10.3-48,16.8C613.9,158.2,590,168.2,564.1,168.2z"/>
		</g>
		<g>
			<path d="M578.6,182.6c-2.4,0-4.9-0.1-7.4-0.3c-34.3-2.4-65.3-18.9-95.2-34.7c-39.1-20.7-76-40.3-120.1-31.8
				c-16.3,3.2-32.4,4.1-48,5c-10.2,0.6-20.8,1.2-31.3,2.5c-26.9,3.2-53.3,12.4-78.8,21.3c-11.1,3.9-22.5,7.9-33.8,11.3
				c-2.7,0.8-5.7,1.8-8.8,2.8c-13.9,4.6-31.3,10.3-44.9,8.3c-15.4-2.2-23.1-10.9-32.1-20.9c-2.1-2.4-4.4-4.9-6.8-7.4
				c-14.2-14.6-27.3-16.4-40-5.5c-5.5,4.7-7.8,9.6-9.9,14c-3.4,7.2-6.4,13.5-21.5,15.2l-0.4-3.2c13.3-1.5,15.6-6.5,18.9-13.3
				c2.2-4.6,4.6-9.8,10.7-15c14.1-12.1,29-10.2,44.5,5.7c2.4,2.5,4.7,5,6.9,7.5c8.5,9.5,15.9,17.8,30.1,19.8
				c12.9,1.8,29.8-3.7,43.4-8.2c3.1-1,6.1-2,8.8-2.8c11.2-3.4,22.6-7.4,33.6-11.2c25.7-9,52.3-18.3,79.5-21.5
				c10.7-1.2,21.3-1.9,31.5-2.5c15.5-0.9,31.5-1.9,47.5-5c45.2-8.8,84.4,12,122.3,32.1c29.6,15.7,60.3,32,93.9,34.4
				c28.4,2,54.4-8.6,79.5-18.8c15.3-6.2,31.1-12.7,47.5-16.3c38.9-8.7,75.5,4.9,106.2,19.3l-1.4,2.9
				c-30.1-14.2-66.1-27.5-104.1-19.1c-16.1,3.6-31.8,10-47,16.2C628.9,172.8,604.9,182.6,578.6,182.6z"/>
		</g>
		<g>
			<path d="M594.6,198.4c-1.2,0-2.3,0-3.5-0.1c-37.3-1.2-72.5-16.8-106.5-31.9c-12.8-5.7-26.1-11.6-39-16.4
				c-28.7-10.8-58.8-16-92.1-15.8c-11.6,0.1-23.9-0.6-35.7-1.2c-19.2-1-39.2-2.1-57.6-0.2c-23.4,2.5-46.4,12-68.6,21.3
				c-9.4,3.9-19.1,8-28.6,11.3c-2,0.7-4.1,1.5-6.2,2.3c-12.1,4.5-27.2,10.1-39.8,8.8c-13.8-1.4-22.1-9.2-31-17.4
				c-2.8-2.6-5.8-5.3-8.9-7.9c-15.7-12.6-29.3-13.4-41.6-2.5c-4.8,4.3-7.7,8.4-10.2,12c-5.1,7.4-9.1,13.2-25.1,13.4l0-3.3
				c14.3-0.2,17.6-4.9,22.5-12c2.6-3.8,5.6-8.1,10.7-12.6c13.5-11.9,28.8-11.1,45.7,2.4c3.2,2.6,6.2,5.4,9.1,8
				c8.5,7.8,16.5,15.2,29.1,16.5c11.9,1.2,26.5-4.2,38.3-8.6c2.2-0.8,4.3-1.6,6.3-2.3c9.4-3.3,19.1-7.4,28.4-11.3
				c22.5-9.4,45.7-19,69.6-21.5c18.7-2,38.8-0.9,58.2,0.1c11.8,0.6,23.9,1.3,35.5,1.2c33.7-0.2,64.2,5,93.2,16
				c13,4.9,26.3,10.8,39.2,16.5c33.7,15,68.6,30.4,105.3,31.6c27.8,0.9,53-9.2,77.5-19c15.1-6.1,30.8-12.3,47-16
				c26.6-6,57.9,0.4,93,19.1l-1.5,2.9c-34.4-18.3-65-24.6-90.8-18.8c-16,3.6-31.5,9.9-46.5,15.9
				C646.2,188.6,621.7,198.4,594.6,198.4z"/>
		</g>
		<g>
			<path d="M608.3,213.4c-38.4,0-75.9-13.7-112.2-27c-9.8-3.6-20-7.3-29.8-10.6c-35.2-11.8-71-19.3-109.5-22.9
				c-10.5-1-21.4-2.5-32.9-4.2c-27.7-3.9-56.3-8-81.1-4.6c-19,2.6-37.2,11.5-54.9,20c-8.8,4.3-17.9,8.7-26.9,12.2
				c-1.3,0.5-2.5,1-3.8,1.5c-10.4,4.2-22.3,8.9-33.6,7.9c-11.3-1-19.6-7.4-27.6-13.5c-4.3-3.3-8.8-6.8-13.6-9.3
				c-17.8-9.1-30.3-8.6-43.2,2c-4.3,3.6-7.4,6.9-10.2,9.8c-7.2,7.7-12,12.8-29.2,11.5l0.2-3.2c15.6,1.2,19.5-3,26.5-10.5
				c2.8-3,6-6.4,10.5-10.1c17.5-14.3,33.5-9.2,46.8-2.4c5.1,2.6,9.7,6.2,14.1,9.6c8,6.1,15.5,12,25.9,12.9c10.6,0.9,22-3.6,32.1-7.7
				c1.3-0.5,2.6-1,3.9-1.5c8.9-3.5,17.9-7.8,26.7-12.1c17.9-8.7,36.4-17.6,55.8-20.3c25.3-3.5,54.1,0.6,82,4.6
				c11.5,1.6,22.4,3.2,32.8,4.2c38.7,3.7,74.8,11.2,110.2,23.1c9.9,3.3,20,7,29.9,10.6c37.9,13.8,77.1,28.2,116.9,26.6
				c21.7-0.8,42.4-7.7,62.5-14.4c5.6-1.8,11.3-3.7,17-5.5c5.3-1.6,10.6-3.9,15.8-6c7.6-3.2,15.4-6.4,23.5-8
				c28.1-5.6,59.3,7.8,80.6,19.9l-1.6,2.8c-20.8-11.9-51.2-24.9-78.3-19.6c-7.7,1.5-15.4,4.7-22.8,7.8c-5.3,2.2-10.7,4.5-16.1,6.1
				c-5.6,1.7-11.4,3.6-16.9,5.5c-20.3,6.7-41.3,13.7-63.5,14.6C612.3,213.3,610.3,213.4,608.3,213.4z"/>
		</g>
		<g>
			<path d="M616.8,225.1c-39.3,0-78.1-12.1-115.6-23.9c-9.4-2.9-19.1-6-28.5-8.7c-35.3-10.3-73.7-17.9-117.5-23.2
				c-12.3-1.5-24.9-2.8-37.1-4.1c-10.4-1.1-21.1-2.3-31.7-3.5c-4.8-0.6-9.8-1.4-14.6-2.2c-11.9-2-24.3-4-35.8-2.6
				c-16.6,2-32.4,10.3-47.6,18.3c-7.5,4-15.2,8-22.9,11.2l-1.5,0.6c-9.3,3.9-19.8,8.3-30.6,7.3c-10.3-1-18.9-6.1-27.2-11
				c-5.2-3.1-10.6-6.3-16.2-8.3c-18.1-6.6-32.3-5-45.8,5.3c-3.3,2.5-6.1,4.9-8.6,6.9c-10.3,8.6-16.5,13.8-35.6,11l0.5-3.2
				c17.7,2.6,22.8-1.7,33-10.3c2.5-2.1,5.4-4.5,8.7-7c14.5-11,29.6-12.8,48.9-5.7c5.9,2.2,11.4,5.4,16.8,8.6
				c8.4,5,16.3,9.7,25.9,10.6c10,1,19.7-3.1,29-7l1.5-0.6c7.5-3.1,14.9-7,22.6-11.1c15.5-8.2,31.5-16.6,48.8-18.7
				c12-1.4,24.6,0.6,36.8,2.6c5,0.8,9.7,1.6,14.4,2.2c10.5,1.2,21.3,2.4,31.7,3.5c12.2,1.3,24.8,2.6,37.1,4.1
				c43.9,5.3,82.6,12.9,118,23.3c9.5,2.8,19.2,5.8,28.6,8.7c39.8,12.4,80.9,25.3,122.4,23.6c20.9-0.9,41.2-6.7,60.9-12.3
				c6.8-1.9,13.8-3.9,20.8-5.7c5.2-1.3,10.5-3.3,15.6-5.2c7.3-2.7,14.8-5.5,22.3-6.7c25.6-3.9,54.9,9.7,75,21.7l-1.7,2.8
				c-19.6-11.8-48.2-25-72.8-21.3c-7.2,1.1-14.5,3.8-21.6,6.5c-5.2,2-10.6,4-15.9,5.3c-6.9,1.8-13.9,3.8-20.7,5.7
				c-19.9,5.7-40.4,11.5-61.7,12.4C622,225,619.4,225.1,616.8,225.1z"/>
		</g>
		<g>
			<path d="M608.3,238.2c-40.4,0-80.9-10.1-120.3-19.9c-9-2.2-18.2-4.5-27.2-6.6c-42.7-10-78.2-17.4-111.7-23.3
				c-9.8-1.7-20.1-4.1-31-6.5c-28-6.3-57-12.9-82.3-10.3c-14.6,1.5-28.3,8.6-41.5,15.5c-7.4,3.9-15.1,7.8-22.8,10.8
				c-20.5,7.8-35.6,2.1-51.7-3.9c-7.3-2.7-14.9-5.6-23.4-7.4c-19.7-4.2-34.4,3.9-48.7,11.7c-14.1,7.8-28.7,15.8-48,11.8l0.7-3.2
				c18.1,3.7,31.5-3.7,45.8-11.5c14.8-8.1,30-16.5,50.9-12c8.8,1.9,16.4,4.8,23.9,7.5c16.1,6,30,11.2,49.4,3.9
				c7.5-2.9,15.1-6.8,22.5-10.6c13.5-7,27.5-14.3,42.7-15.8c25.8-2.7,55,3.9,83.3,10.3c10.9,2.5,21.1,4.8,30.9,6.5
				c33.6,5.9,69.2,13.3,111.9,23.3c9,2.1,18.3,4.4,27.2,6.6c46.4,11.5,94.5,23.5,141.7,18.7c18.4-1.9,37-7.9,55-13.6
				c20.3-6.5,41.3-13.3,62.1-14.1c20.8-0.8,46.1,7.4,77.3,25.2l-1.6,2.8c-30.6-17.5-55.3-25.6-75.5-24.7c-20.4,0.8-41.2,7.5-61.2,14
				c-18.1,5.8-36.9,11.9-55.7,13.8C623.4,237.9,615.8,238.2,608.3,238.2z"/>
		</g>
		<g>
			<path d="M829.5,252.1c-27.3-12.9-58.2-27.4-88.2-29c-22.3-1.2-45.4,5.1-67.6,11.1c-16.5,4.5-33.5,9.1-50.2,10.7
				c-46,4.4-92-5.7-136.4-15.6c-9.6-2.1-19.4-4.3-29.1-6.3c-30.8-6.3-62.3-12.3-92.7-18l-12.6-2.4c-9.3-1.8-18.7-3.9-28.8-6.2
				c-26.5-6-53.9-12.3-78.8-11.2c-14.2,0.6-27.6,7-40.5,13.2c-7.3,3.5-14.9,7.1-22.5,9.7c-18.2,6-33.6,1.5-50-3.3
				c-8.8-2.6-18-5.3-27.7-6.2c-18.9-1.8-34.1,5.6-48.9,12.7c-16.7,8-33.9,16.4-55.8,10.8l0.8-3.2c20.7,5.3,36.6-2.4,53.5-10.5
				c15.2-7.3,30.9-14.9,50.6-13c10,0.9,19.3,3.7,28.3,6.3c15.9,4.7,30.8,9.1,48.1,3.4c7.4-2.5,14.9-6,22.1-9.5
				c13.2-6.3,26.9-12.9,41.8-13.5c25.4-1.1,53,5.2,79.7,11.3c10,2.3,19.4,4.4,28.7,6.2l12.6,2.4c30.4,5.8,61.9,11.7,92.7,18
				c9.7,2,19.6,4.2,29.1,6.3c44.2,9.8,89.9,19.9,135.4,15.5c16.4-1.6,33.3-6.2,49.7-10.6c22.5-6.1,45.8-12.4,68.7-11.2
				c30.7,1.6,61.9,16.3,89.4,29.3L829.5,252.1z"/>
		</g>
		<g>
			<path d="M835.6,270.1c-7.7-2.8-15.6-5.8-23.3-8.7c-26.6-10.2-54.2-20.7-82.2-24.3c-24.6-3.2-49.7,2.2-74,7.5
				c-13.4,2.9-27.3,5.9-40.9,7.4c-45.8,5-91.4-4.3-135.4-13.2c-6.3-1.3-12.7-2.6-19-3.8c-14.6-2.9-29.5-5.4-44-7.9
				c-17.4-3-35.4-6-53-9.7c-8.4-1.8-17.2-3.8-25.7-5.7c-24.7-5.7-50.2-11.6-74.6-12.9c-16.4-0.9-30.9,4.9-46.2,11.1
				c-5.7,2.3-11.5,4.7-17.4,6.6c-19.1,6.4-36.1,2.8-54-1c-11.3-2.4-23-4.8-35.3-4.6c-17.8,0.4-32.7,7.1-47.1,13.5
				c-20,9-38.8,17.4-63.9,9.8l0.9-3.1c23.9,7.3,42.2-1,61.6-9.7c14.7-6.6,29.9-13.4,48.4-13.8c12.7-0.3,24.6,2.2,36,4.7
				c17.5,3.7,34,7.2,52.3,1.1c5.8-1.9,11.6-4.3,17.2-6.5c15-6,30.5-12.3,47.6-11.4c24.7,1.3,50.4,7.3,75.2,13c8.5,2,17.2,4,25.6,5.7
				c17.6,3.7,35.5,6.7,52.9,9.7c14.5,2.5,29.4,5,44,7.9c6.3,1.2,12.6,2.5,19,3.8c43.8,8.9,89.2,18.2,134.4,13.2
				c13.4-1.5,27.2-4.4,40.6-7.3c24.6-5.3,49.9-10.8,75.1-7.5c28.5,3.7,56.2,14.3,83,24.5c7.6,2.9,15.5,5.9,23.2,8.7L835.6,270.1z"/>
		</g>
		<g>
			<path d="M841.2,287.6c-16.8-4.5-33.6-10-49.9-15.4c-24.5-8.1-49.9-16.5-75.7-21.3c-28.5-5.3-56.7,0.2-83.9,5.6
				c-14.7,2.9-29.9,5.9-45.2,7.2c-61.9,5.4-136-4.9-220.4-30.5c-5-1.5-10.2-3.2-15.3-4.7c-24.3-7.7-49.5-15.6-74-17.4
				c-16-1.2-31.2,4.2-46,9.5c-6.7,2.4-13.6,4.9-20.6,6.7c-17.4,4.6-34.5,1.7-51-1.1c-13.9-2.4-28.3-4.8-43-2.8
				c-16.2,2.2-30.1,8.2-43.6,13.9c-22.8,9.7-44.3,18.9-73.2,8.8l1.1-3.1c27.8,9.6,48.7,0.7,70.9-8.7c13.7-5.8,27.8-11.8,44.4-14.1
				c15.2-2.1,29.8,0.4,44,2.8c16.9,2.9,32.9,5.6,49.6,1.2c6.8-1.8,13.7-4.2,20.3-6.6c15-5.4,30.6-10.9,47.3-9.7
				c24.9,1.9,50.2,9.8,74.7,17.6c5,1.6,10.2,3.2,15.2,4.7c84,25.5,157.8,35.7,219.2,30.4c15.1-1.3,30.2-4.3,44.9-7.2
				c27.5-5.4,56-11,85.1-5.6c26,4.8,51.5,13.2,76.1,21.4c16.2,5.4,33,10.9,49.7,15.3L841.2,287.6z"/>
		</g>
		<g>
			<path d="M846.1,304.4c-24.2-5.2-48.3-12.5-71.5-19.5c-24.1-7.3-48.9-14.8-73.9-20c-34.2-7.1-64.2-1.4-95.9,4.6
				c-8.9,1.7-18.2,3.5-27.7,5c-66.4,10.5-137.8,2.5-196-21.9c-3.8-1.6-7.5-3.2-11.3-4.8c-22.8-9.8-46.3-19.9-70.6-23.6
				c-19.4-3-36.6,2.1-54.8,7.5c-7.9,2.3-16,4.7-24.3,6.4c-16.5,3.4-32.5,1.1-48-1.2c-16.4-2.4-33.3-4.8-50.8-0.5
				c-13.9,3.4-26.1,8.5-38,13.4c-25.9,10.8-50.4,21-83.6,8l1.2-3c32,12.5,54.8,3,81.2-8c12-5,24.3-10.2,38.5-13.6
				c18.1-4.4,35.4-1.9,52.1,0.5c15.9,2.3,31,4.5,46.9,1.2c8.2-1.7,16.3-4.1,24.1-6.4c17.8-5.2,36.1-10.7,56.3-7.6
				c24.7,3.8,48.5,14,71.4,23.8c3.8,1.6,7.6,3.2,11.3,4.8c57.6,24.3,128.4,32.2,194.2,21.7c9.5-1.5,18.7-3.3,27.6-5
				c32.1-6.1,62.4-11.9,97.2-4.6c25.1,5.2,50.1,12.8,74.2,20.1c23.2,7,47.2,14.3,71.3,19.4L846.1,304.4z"/>
		</g>
		<g>
			<path d="M850.1,320.2c-32.2-5.3-64.1-14.5-94.9-23.4c-22.2-6.4-45.1-13-67.9-18.1c-44.4-9.9-78-3.7-117.3,5.5
				c-25.3,5.9-49.3,8.9-72.2,8.9c-38.9,0-74.5-8.6-107.6-25.9c-1.8-0.9-3.6-1.9-5.3-2.8c-23.5-12.3-47.8-25.1-74.1-28.8
				c-19.1-2.7-36.5,1.9-54.9,6.9c-9.1,2.4-18.6,5-28.2,6.5c-14,2.2-25.4-0.1-37.3-2.5c-4.2-0.8-8.5-1.7-13.1-2.4
				c-15.9-2.5-33.1-0.5-52.6,6.1c-10.7,3.6-20.4,7.8-29.8,11.8C64,275,37.4,286.3-0.6,269.7l1.3-3c36.8,16,62.8,5,92.9-7.9
				c9.5-4,19.3-8.2,30-11.8c20-6.8,37.7-8.8,54.1-6.2c4.7,0.7,9,1.6,13.2,2.5c12.2,2.5,22.7,4.6,36.2,2.5c9.5-1.5,18.8-4,27.9-6.4
				c17.9-4.8,36.4-9.8,56.2-7c26.8,3.8,51.4,16.7,75.2,29.2c1.8,0.9,3.6,1.9,5.3,2.8c51.8,27,109.9,32.5,177.5,16.7
				c39.7-9.3,73.7-15.6,118.8-5.5c22.9,5.1,45.9,11.7,68.1,18.2c30.7,8.9,62.5,18,94.5,23.3L850.1,320.2z"/>
		</g>
		<g>
			<path d="M852.9,334.9c-33.7-4.1-67.7-14.1-100.5-23.8c-61.8-18.2-125.7-37.1-189.2-16.5c-65.9,21.4-112.7,18.2-161.4-11.1
				c-1.9-1.1-3.8-2.3-5.6-3.4c-23.1-14-47.1-28.5-74.3-32.6c-20-3-38.3,1.5-57.6,6.2c-9.5,2.4-19.4,4.8-29.4,6.2
				c-14.1,2-25.4-0.3-37.5-2.8c-4.9-1-10-2.1-15.5-2.8c-20-2.9-39.1,3.7-53.5,9.8c-7,3-13.7,6-20.2,8.9
				c-36.6,16.6-65.6,29.7-108.9,8.7l1.4-2.9c42,20.3,70.3,7.4,106.2-8.8c6.5-2.9,13.2-6,20.2-8.9c14.8-6.2,34.5-13,55.2-10
				c5.5,0.8,10.7,1.9,15.6,2.9c11.8,2.4,22.9,4.7,36.4,2.8c9.9-1.4,19.7-3.8,29.1-6.2c18.8-4.6,38.1-9.4,58.8-6.3
				c27.9,4.2,52.1,18.9,75.5,33c1.9,1.1,3.8,2.3,5.6,3.4c47.8,28.8,93.8,31.9,158.7,10.8c64.4-20.9,128.8-1.9,191.1,16.5
				c32.7,9.7,66.6,19.7,100,23.7L852.9,334.9z"/>
		</g>
		<g>
			<path d="M854.2,348c-42.9-3.4-85.2-15.6-126-27.4c-18.4-5.3-37.5-10.8-56.3-15.4c-38.4-9.4-73.2-15.9-109.6-0.7
				c-5.8,2.4-11.5,5.1-17.1,7.7c-17.4,8.1-33.8,15.7-53.5,17.2c-32,2.4-57.3-11.3-79.9-26.5c-4.2-2.8-8.3-5.7-12.4-8.5
				c-20.1-14-40.9-28.4-65.5-33.9c-23.4-5.2-44.6-0.3-67,5c-6.9,1.6-14.1,3.3-21.3,4.7c-16,3-31.2,1.1-45.8-0.8
				c-19.3-2.5-37.6-4.8-57.5,3.6c-9.5,4-18.8,9.2-27.8,14.2c-13.6,7.6-27.7,15.4-43.2,19.6c-26.5,7.3-46.5,0.7-72.1-13.1l1.5-2.9
				c24.9,13.4,44.2,19.8,69.7,12.8c15.1-4.2,29-11.9,42.4-19.3c9-5,18.4-10.2,28.1-14.3c20.7-8.8,40.2-6.3,59.2-3.8
				c14.4,1.8,29.2,3.7,44.8,0.8c7.2-1.3,14.3-3,21.2-4.6c22.7-5.3,44.2-10.3,68.4-5c25.3,5.6,46.3,20.3,66.7,34.4
				c4,2.8,8.2,5.7,12.3,8.5c22.1,14.9,46.9,28.3,77.8,26c19.1-1.4,35.3-8.9,52.4-16.9c5.6-2.6,11.3-5.3,17.2-7.7
				c37.3-15.6,72.7-9,111.7,0.5c18.8,4.6,37.9,10.1,56.4,15.4c40.7,11.7,82.8,23.9,125.4,27.2L854.2,348z"/>
		</g>
		<g>
			<path d="M853,358.1c-39.9-5.7-79.5-16.4-117.8-26.8c-20.4-5.5-41.5-11.3-62.3-16.1c-36.3-8.5-70.7-16.5-108.3,0.4
				c-6.5,2.9-12.9,6.3-19.2,9.5c-16,8.3-32.6,16.9-51.4,19.1c-32.3,3.8-58.8-12.6-81.2-28.3c-3.2-2.2-6.3-4.5-9.5-6.7
				c-22.2-15.8-43.1-30.8-70.1-35.5c-23.5-4.1-45.2-0.4-68.2,3.6c-7.3,1.2-14.8,2.5-22.4,3.5c-15,2-29.3,0.5-43.1-1
				c-20.7-2.2-40.2-4.2-61,4.9c-8.8,3.8-17.4,8.6-25.7,13.1c-14,7.7-28.5,15.7-44.5,19.8c-26.2,6.8-45.8,0.4-70.9-12.8l1.5-2.9
				c24.4,12.8,43.4,19,68.6,12.5c15.6-4,29.9-11.9,43.7-19.5c8.4-4.6,17-9.4,25.9-13.3c21.5-9.4,41.5-7.3,62.6-5.1
				c13.7,1.4,27.8,2.9,42.4,1c7.5-1,15-2.3,22.3-3.5c23.3-4,45.3-7.8,69.4-3.6c27.8,4.8,50,20.7,71.5,36.1c3.1,2.2,6.3,4.5,9.5,6.7
				c21.9,15.3,47.8,31.4,79,27.7c18.3-2.2,34.6-10.6,50.3-18.8c6.3-3.3,12.8-6.6,19.3-9.6c38.6-17.4,75.1-8.8,110.3-0.6
				c20.9,4.9,42,10.6,62.4,16.2c38.2,10.4,77.6,21.1,117.4,26.7L853,358.1z"/>
		</g>
		<g>
			<path d="M848.4,364.7c-26.4-5.8-53.1-12.4-78.8-18.9c-31.2-7.8-63.4-15.8-95.3-22.4c-40-8.2-68.8-12.3-103.7,5
				c-5.9,2.9-12,6.3-17.9,9.6c-16.8,9.4-34.3,19.1-53.7,21.3c-2.7,0.3-5.3,0.4-7.9,0.4c-29.3,0-55.2-18-78.3-34l-0.7-0.5
				c-30.5-21.1-54.7-36.3-89.4-38.4c-21.6-1.3-43.1,1-64,3.3c-11.9,1.3-24.2,2.6-36.5,3.3c-13.6,0.7-26.7-0.8-39.4-2.3
				c-6.8-0.8-13.8-1.6-20.9-2.1c-17.6-1.2-34,6.2-49.4,13.8c-43.4,21.5-74.7,37.1-121.7,12.6l1.5-2.9c45.5,23.7,76.2,8.5,118.7-12.6
				c15.7-7.8,32.7-15.3,51.1-14.1c7.2,0.5,14.3,1.3,21.1,2.1c13.1,1.5,25.5,3,38.8,2.2c12.2-0.7,24.5-2,36.3-3.3
				c21-2.3,42.7-4.7,64.6-3.3c35.6,2.2,60.2,17.5,91.1,38.9l0.7,0.5c24.7,17.1,52.6,36.5,84,33c18.7-2.1,35.9-11.7,52.4-20.9
				c5.9-3.3,12-6.7,18-9.7c35.9-17.7,65.2-13.6,105.8-5.2c32,6.6,64.3,14.6,95.5,22.4c25.8,6.4,52.4,13.1,78.8,18.8L848.4,364.7z"/>
		</g>
		<g>
			<path d="M501,375.9c-28.6,0-56.2-18.6-78.8-33.8c-1.9-1.3-3.8-2.6-5.7-3.8c-31-20.6-57.9-36.5-98.7-36.5
				c-22.6-0.1-45.5,1.4-67.6,2.7c-15.5,0.9-31.6,1.9-47.5,2.4c-11.1,0.3-21.9-0.1-32.3-0.6c-27-1.2-52.6-2.3-78.7,10.5
				c-41.5,20.2-69,31.5-109.9,9.2l1.6-2.9c39.5,21.6,66.4,10.5,106.9-9.3c26.9-13.1,52.8-12,80.3-10.8c10.4,0.4,21.1,0.9,32.1,0.6
				c15.8-0.5,31.8-1.5,47.4-2.4c21.9-1.3,44.5-2.7,66.8-2.7c0.3,0,0.7,0,1,0c41.7,0.1,69.1,16.1,100.5,37.1c1.9,1.2,3.8,2.5,5.7,3.8
				c24.7,16.6,55.3,37.2,86,32.6c18-2.7,34.9-12.9,51.2-22.7c6.4-3.8,12.4-7.4,18.5-10.6l2.1-1.1c10-5.3,20.3-10.7,31.3-13.2
				c17.8-4,37-0.5,55.6,2.9c3.9,0.7,7.6,1.4,11.3,2c54.5,9,109.1,21.2,162.4,36.3l-0.9,3.1c-53.1-15.1-107.6-27.3-162-36.2
				c-3.7-0.6-7.4-1.3-11.3-2c-18.2-3.3-37.1-6.8-54.3-2.9c-10.5,2.4-20.7,7.7-30.5,12.9l-2.1,1.1c-6,3.2-12,6.8-18.4,10.6
				c-16.6,10-33.8,20.3-52.4,23.1C507.3,375.7,504.1,375.9,501,375.9z"/>
		</g>
		<g>
			<path d="M510.3,392.5c-28.9,0-58.3-19.6-82.5-35.7c-2.6-1.7-5.1-3.4-7.6-5c-36.5-23.9-64.6-36.4-108.2-34.5
				c-50.2,2.3-92,3.5-131.4,3.8c-9,0.1-18.1-0.2-26.9-0.5c-29.8-0.9-58-1.8-85.2,10.5c-34.4,15.6-59.2,26.9-96,5l1.7-2.8
				c35.3,21,58.2,10.6,93-5.2c27.9-12.7,56.5-11.8,86.7-10.8c8.7,0.3,17.8,0.6,26.7,0.5c39.4-0.4,81.1-1.6,131.3-3.8
				c44.4-2,74,11.3,110.2,35c2.4,1.6,5,3.3,7.6,5c26.8,17.8,60.1,40,91.1,34.2c17.5-3.3,34.4-13.7,50.8-23.8
				c6.7-4.1,13.1-8,19.4-11.4c1.6-0.9,3.2-1.7,4.8-2.6c9-4.9,18.4-10.1,28.2-12.7c15.9-4.2,33.2-2.1,50,0c4,0.5,7.7,1,11.5,1.3
				c42,4.3,96.8,11.5,148.6,29l-1,3.1c-51.6-17.5-106.1-24.6-147.9-28.9c-3.8-0.4-7.7-0.9-11.5-1.3c-16.5-2-33.5-4.1-48.8-0.1
				c-9.4,2.5-18.6,7.5-27.5,12.4c-1.6,0.9-3.2,1.8-4.8,2.6c-6.2,3.3-12.5,7.2-19.2,11.3c-16.6,10.2-33.9,20.8-51.9,24.2
				C517.7,392.2,514,392.5,510.3,392.5z"/>
		</g>
		<g>
			<path d="M516.4,408.8c-29.5,0-61.1-20.7-84.9-36.4c-3.4-2.3-6.7-4.4-9.9-6.4c-17.3-11.1-35.2-22.5-55.2-29.1
				c-18.6-6.2-35.2-4.8-54.5-3.2c-2,0.2-4,0.3-6,0.5c-42.3,3.3-85.3,2.8-126.9,2.2c-6.5-0.1-13-0.2-19.5-0.2
				c-6.9-0.1-14.1-0.3-21-0.5c-31-1-63.1-2.1-91.3,10.5c-30.9,13.8-51.8,20.8-81.8,0.8l1.8-2.7c29.1,19.4,48.9,12.2,78.6-1.1
				c28.8-12.9,61.3-11.8,92.7-10.8c6.9,0.2,14,0.5,20.9,0.5c6.5,0.1,13,0.2,19.5,0.2c41.5,0.6,84.4,1.1,126.6-2.2c2-0.2,4-0.3,6-0.5
				c19.6-1.6,36.5-3,55.7,3.3c20.4,6.7,38.5,18.3,55.9,29.5c3.2,2,6.5,4.2,9.9,6.5c26.4,17.4,62.7,41.1,93.9,34.8
				c17.5-3.6,35-13.8,51.9-23.8c7.3-4.3,14.2-8.3,21-11.8c2.2-1.1,4.4-2.3,6.7-3.5c8.7-4.6,17.7-9.3,26.9-12
				c14.2-4.1,29.6-3.6,44.5-3.2c3.9,0.1,8,0.3,11.8,0.3c51.3,0.5,93.9,4,134.9,19.7l-1.2,3c-40.6-15.5-82.8-19-133.8-19.5
				c-3.9,0-8-0.2-11.9-0.3c-14.7-0.5-29.9-1-43.5,3c-9,2.6-17.8,7.3-26.3,11.8c-2.3,1.2-4.5,2.4-6.7,3.5
				c-6.7,3.4-13.6,7.5-20.8,11.7c-17.1,10.1-34.9,20.5-52.9,24.2C524.1,408.4,520.3,408.8,516.4,408.8z"/>
		</g>
		<g>
			<path d="M515.9,424.3c-29.3,0-59.6-19.7-84.3-35.7c-2.4-1.6-4.7-3.1-7-4.5c-40.1-25.7-69.2-37.8-116.7-32.4
				c-44.7,5.1-89.9,3-133.5,0.9c-8.7-0.4-17.7-0.9-26.6-1.2c-4.8-0.2-9.7-0.4-14.7-0.7c-34.2-1.8-69.7-3.6-100,9.7
				c-24.6,10.8-44.1,17-69.9-2.1l1.9-2.6c24.5,18.1,42.3,12.5,66.6,1.8c31-13.6,66.8-11.8,101.4-10c4.9,0.3,9.8,0.5,14.6,0.7
				c8.9,0.4,17.9,0.8,26.6,1.2c43.5,2.1,88.5,4.2,133-0.9c48.2-5.5,78.9,7.3,118.8,32.9c2.3,1.4,4.6,3,7,4.5
				c26.5,17.2,59.5,38.7,90.1,34.7c18.2-2.4,37.5-12.4,56.2-22.2c8-4.2,15.6-8.1,22.8-11.3c55.1-24.4,144.2-42.9,213.8-14.7l-1.2,3
				c-68.7-27.8-156.7-9.5-211.3,14.7c-7.1,3.2-14.6,7.1-22.6,11.2c-18.9,9.9-38.5,20.1-57.3,22.5
				C521.3,424.1,518.6,424.3,515.9,424.3z"/>
		</g>
		<g>
			<path d="M507.8,437c-30.7,0-59.6-19.6-85.1-37c-3.4-2.3-6.7-4.6-10-6.8c-18.4-12.2-35.2-22.7-54.5-27.3
				c-16.4-3.9-31.9-1.3-48.3,1.5c-6.1,1-12.4,2.1-18.8,2.8c-39.7,4.4-79.5,0.9-117.9-2.5c-9.2-0.8-18.7-1.7-28-2.4l-1.5-0.1
				c-37.4-2.9-79.7-6.1-115.3,8.9c-19.9,8.4-42.9,15.8-63.1-3.5l2.2-2.4c17,16.2,35.4,13.1,59.6,2.9c36.3-15.4,79-12.1,116.8-9.2
				l1.5,0.1c9.4,0.7,18.9,1.6,28.1,2.4c38.3,3.4,77.9,6.9,117.3,2.5c6.3-0.7,12.5-1.7,18.6-2.8c16-2.7,32.5-5.5,49.6-1.4
				c19.9,4.7,36.9,15.4,55.5,27.7c3.3,2.2,6.6,4.4,10,6.8c25.8,17.6,55.1,37.4,85.6,36.4c20.2-0.7,42.2-9.5,63.4-18.1
				c8.7-3.5,17-6.8,24.9-9.5c19.1-6.4,38.7-11.4,57.7-16.3c11.3-2.9,23-5.9,34.4-9.1c39.4-11.2,76.6-21.7,118.1-5l-1.2,3
				c-40.5-16.3-77.2-5.9-116,5.1c-11.5,3.3-23.2,6.3-34.5,9.1c-18.9,4.8-38.4,9.8-57.4,16.2c-7.8,2.6-16,5.9-24.7,9.4
				c-21.5,8.6-43.8,17.6-64.5,18.3C509.4,437,508.6,437,507.8,437z"/>
		</g>
		<g>
			<path d="M494.4,448.3c-31,0-58.3-19.6-82.5-37.1l-6.1-4.4c-14.7-10.6-29.9-21.5-47.4-26c-15.9-4-30.4-1.1-45.8,2.1
				c-5.1,1-10.4,2.1-15.8,2.9c-41.4,6.3-80.2,0.8-121.2-5c-7-1-14.3-2-21.5-3c-32.9-4.4-76-7.3-118.4,8.5
				c-20.9,7.8-45.1,13.6-65.8-2.9l2-2.6c19.5,15.4,42.6,9.8,62.7,2.4c43.1-16.1,86.8-13.1,120-8.7c7.2,1,14.5,2,21.6,3
				c40.8,5.8,79.3,11.3,120.3,5c5.3-0.8,10.5-1.9,15.6-2.9c15.8-3.2,30.7-6.3,47.2-2c18.1,4.6,33.6,15.7,48.5,26.5l6.1,4.4
				c25.3,18.2,53.9,38.8,86.2,36.2c23.1-1.9,47.3-9.3,70.7-16.4c11.1-3.4,21.6-6.6,32.1-9.3c8.6-2.2,17.4-4.2,25.9-6.1
				c20.1-4.5,40.8-9.1,60-17.2c2.4-1,4.7-2,7.1-3c36.2-15.3,67.5-28.6,107.4-11.6l-1.3,3c-38.6-16.4-69.3-3.4-104.9,11.6
				c-2.3,1-4.7,2-7.1,3c-19.5,8.2-40.4,12.8-60.6,17.4c-8.5,1.9-17.3,3.9-25.8,6.1c-10.4,2.7-20.9,5.9-31.9,9.3
				c-23.5,7.2-47.9,14.7-71.4,16.6C498.3,448.2,496.4,448.3,494.4,448.3z"/>
		</g>
		<g>
			<path d="M478.6,459.3c-31.2,0-55-18.6-78.1-36.6l-2.9-2.3c-1.4-1.1-2.7-2.1-4.1-3.2c-12.3-9.7-25-19.7-40.3-23.1
				c-13.7-3.1-26.3,0.2-39.8,3.8c-5.6,1.5-11.3,3-17.2,4c-38.1,6.6-72.3-1.2-108.4-9.5c-6.8-1.6-13.8-3.2-20.8-4.7
				c-44.1-9.4-78.1-3.2-115.6,9c-19.9,6.5-49.3,13.6-75.3,0l1.5-2.9c24.9,13,53.4,6.1,72.7-0.2c38-12.4,72.5-18.7,117.3-9.1
				c7,1.5,14.1,3.1,20.9,4.7c35.8,8.2,69.6,16,107.1,9.5c5.7-1,11.4-2.5,16.9-3.9c13.2-3.5,26.9-7,41.3-3.8
				c16,3.6,29,13.8,41.6,23.7c1.4,1.1,2.7,2.2,4.1,3.2l2.9,2.3c23.4,18.2,47.5,37.1,79.2,35.8c26.5-1.1,54.3-7.7,81.1-14
				c12.4-2.9,25.3-6,37.6-8.3c7-1.3,14.1-2.5,21-3.7c25.1-4.2,48.8-8.1,71.1-19.8c4.8-2.5,9.4-5.1,13.9-7.6
				c31.4-17.3,56.2-31,94.3-12.8l-1.4,2.9c-36.6-17.4-60.7-4.1-91.3,12.7c-4.5,2.5-9.1,5-14,7.6c-22.7,12-47.8,16.1-72,20.2
				c-6.8,1.1-13.9,2.3-20.9,3.7c-12.2,2.4-25.1,5.4-37.5,8.3c-27,6.4-54.9,13-81.8,14.1C480.8,459.2,479.7,459.3,478.6,459.3z"/>
		</g>
		<g>
			<path d="M461.9,469.9c-32.5,0-52.5-17.7-75.7-38.2c-1.3-1.1-2.4-2.2-3.6-3.3c-10.3-9.3-21-18.9-34.6-21.5
				c-11.6-2.2-23,1.7-34.1,5.4c-5.6,1.9-11.4,3.9-17.3,5.1c-34.4,7-62.7-3.1-92.8-13.7c-6.2-2.2-12.7-4.5-19.2-6.6
				c-29.2-9.5-55.3-10.7-77.7-3.5c-5.3,1.7-10.5,3.9-15.6,6.1c-6.2,2.6-12.6,5.3-19.3,7.2c-33.4,9.4-63.2,10.4-88.8,3l0.9-3.1
				c25,7.2,54.2,6.2,87-3c6.5-1.8,12.8-4.5,18.9-7.1c5.1-2.2,10.4-4.4,15.9-6.2c23.1-7.4,49.9-6.3,79.7,3.5
				c6.6,2.2,13.1,4.4,19.3,6.7c29.6,10.5,57.5,20.3,91,13.5c5.6-1.1,11.3-3.1,16.9-5c11.4-3.9,23.3-7.9,35.8-5.5
				c14.5,2.8,25.5,12.7,36.1,22.3c1.2,1.1,2.4,2.1,3.6,3.2c22.9,20.3,42.6,37.7,74.2,37.5c30.6-0.2,62.5-5.8,93.4-11.2
				c14.5-2.5,29.4-5.2,43.8-7.1c7.6-1,15.4-1.8,22.9-2.6c26.4-2.6,53.6-5.4,76.5-19.8c5.6-3.6,10.9-7.1,15.9-10.6
				c27-18.5,48.4-33.1,85.7-12.3l-1.6,2.8c-35.6-19.8-55.2-6.4-82.3,12.1c-5.1,3.5-10.3,7.1-16,10.7c-23.5,14.8-51.1,17.6-77.9,20.3
				c-7.5,0.7-15.3,1.5-22.8,2.6c-14.3,2-29.2,4.6-43.7,7.1c-31,5.4-63.1,11.1-94,11.3C462.4,469.9,462.2,469.9,461.9,469.9z"/>
		</g>
		<g>
			<path d="M443.1,480.5c-30.5,0-47.7-17.7-67.5-38.1c-1-1.1-2.1-2.2-3.2-3.3c-8.4-8.8-17.1-18-29-19.8c-10-1.6-19.8,2.9-29.4,7.2
				c-5.4,2.4-10.9,4.9-16.5,6.3c-30.6,7.7-52.9-3.8-76.4-16c-5.7-3-11.6-6-17.8-8.9c-30.5-14.2-53.7-6.6-80.6,2.2
				c-9.3,3-18.9,6.2-29.2,8.5c-31.1,7.1-64.9,8.6-103.5,4.5l0.3-3.2c38.2,4.1,71.8,2.6,102.5-4.4c10.2-2.3,19.7-5.5,28.9-8.5
				c26.4-8.6,51.3-16.8,82.9-2.1c6.2,2.9,12.2,6,17.9,9c24,12.4,44.7,23.1,74.1,15.7c5.2-1.3,10.4-3.6,15.9-6.1
				c10-4.5,20.3-9.1,31.2-7.4c13,2,22.4,12,30.8,20.8c1.1,1.1,2.1,2.2,3.1,3.3c19.6,20.2,36.5,37.7,66.5,37.1
				c35.3-0.6,71.4-4.8,106.3-8.8c16.2-1.9,33-3.8,49.3-5.4c8.1-0.8,16.4-1.1,25.2-1.5c28.9-1.2,58.7-2.5,81.2-19.5
				c6.1-4.6,11.6-9.3,16.8-13.8c23.7-20.2,40.8-34.8,77.6-11.3l-1.8,2.7c-34.7-22.1-50.2-8.9-73.7,11.1c-5.3,4.5-10.8,9.2-17,13.9
				c-23.3,17.6-53.7,18.9-83.1,20.1c-8.7,0.4-16.9,0.7-25,1.5c-16.3,1.5-33.1,3.5-49.3,5.3c-35,4-71.2,8.2-106.6,8.9
				C444,480.5,443.6,480.5,443.1,480.5z"/>
		</g>
		<g>
			<path d="M434.9,491.8c-4.2,0-8.3-0.2-12.3-0.6c-25.7-2.8-38.5-18.1-53.3-35.8c-1.6-2-3.3-4-5-6c-18.7-21.9-29.1-17.2-46.4-9.3
				c-6.8,3.1-14.6,6.6-24.2,9.1c-24.9,6.5-40.2-4.7-56.5-16.6c-6.1-4.4-12.4-9-19.4-12.9c-24.7-13.5-47.5-5.3-71.6,3.4
				c-11.4,4.1-23.1,8.3-35.3,10.3c-34.4,5.4-69.7,4.2-104,2.9c-3.7-0.1-7.4-0.3-11.1-0.4l0.1-3.3c3.7,0.1,7.4,0.3,11.1,0.4
				c34.1,1.2,69.3,2.5,103.3-2.9c11.9-1.9,23.5-6.1,34.7-10.1c24.8-9,48.3-17.4,74.3-3.2c7.2,4,13.6,8.6,19.8,13.1
				c16.3,11.9,30.3,22.1,53.7,16c9.3-2.4,16.9-5.9,23.6-8.9c17.4-7.9,30-13.6,50.3,10.2c1.7,2,3.4,4,5.1,6
				c14.4,17.2,26.8,32,51.1,34.6c13.1,1.4,27.5,0,41.4-1.3c6.2-0.6,12-1.2,17.8-1.5c23.5-1.4,47.4-2.9,70.6-4.4
				c10.9-0.7,21.7-1.4,32.6-2.1l6.1-0.4c23.2-1.5,47.1-3,70.7-4.1c23.3-1.1,36.2-2.3,52.2-17.2c5.7-5.3,10.7-10.5,15.4-15.6
				c20.2-21.4,34.8-36.8,71.3-10.6l-1.9,2.6c-34.2-24.6-46.5-11.5-67,10.2c-4.8,5.1-9.8,10.4-15.6,15.7c-17.6,16.3-33,17-54.2,18
				c-23.6,1.1-47.5,2.6-70.6,4.1l-6.1,0.4c-10.9,0.7-21.7,1.4-32.6,2.1c-23.1,1.5-47.1,3-70.6,4.4c-5.7,0.3-11.5,0.9-17.6,1.5
				C454.8,490.9,444.7,491.8,434.9,491.8z"/>
		</g>
		<g>
			<path d="M444.1,502.5c-8.9,0-17.8-0.2-26.6-0.5c-28.5-1.2-41.3-18.8-56.1-39.2c-0.8-1.1-1.7-2.4-2.6-3.6
				c-5.3-7.7-11.4-16.5-20.4-17.3c-8.5-0.8-16.6,5.3-24.4,11.3c-3.9,3-7.6,5.7-11.3,7.6c-27.2,13.9-40.4,2.9-55.7-9.9
				c-6.1-5.1-12.3-10.3-20.1-14.6c-19.1-10.7-34.4-4-53.7,4.5l-0.5,0.2c-14.8,6.5-31.3,10.2-51.9,11.6c-25.2,1.7-50.7,0-75.4-1.7
				c-15.2-1-30.9-2.1-46.3-2.3l0.1-3.3c15.5,0.2,31.2,1.3,46.5,2.3c24.6,1.7,50.1,3.4,75,1.7c20.2-1.4,36.4-5,50.8-11.3l0.5-0.2
				c19.4-8.5,36.1-15.9,56.6-4.4c8,4.5,14.4,9.8,20.6,15c15,12.5,26.8,22.4,52.1,9.5c3.4-1.7,7-4.4,10.8-7.3
				c7.9-6,16.9-12.8,26.6-11.9c10.5,1,17.3,10.8,22.8,18.7c0.9,1.2,1.7,2.5,2.5,3.6c14.9,20.5,26.7,36.7,53.6,37.8
				c39.2,1.6,79.6-0.9,118.7-3.2c18-1.1,36.7-2.2,54.8-3l6.6-0.3c23.7-0.9,48.2-1.9,72.3-2.5c21.7-0.5,34.8-1.6,49.8-18.3
				c4.1-4.5,7.5-10.1,10.8-15.5c4.4-7.1,8.9-14.5,15.3-20c21-18.2,37.6-5.1,55.1,8.7l-2,2.6c-17.2-13.5-32-25.2-51-8.8
				c-6,5.2-10.4,12.3-14.6,19.3c-3.4,5.5-6.8,11.2-11.1,16c-15.9,17.7-29.5,18.8-52.2,19.4c-24.1,0.6-48.5,1.5-72.2,2.5l-6.6,0.3
				c-18.1,0.7-36.8,1.9-54.8,3C506.1,500.6,474.9,502.5,444.1,502.5z"/>
		</g>
		<g>
			<path d="M461.5,514.6c-15.4,0-30.8-0.3-46-1.2c-28.2-1.6-40.1-18.4-55.2-39.6l-0.1-0.1c-17.9-25.3-25.9-20-45.4-7.2
				c-3.5,2.3-7.5,4.9-11.9,7.6c-26.3,15.9-38.3,6.7-53.5-5c-5.7-4.4-12.2-9.4-20.1-13.3c-16.6-8.3-29.7-2.4-44.8,4.5
				c-2.9,1.3-5.8,2.6-8.9,3.9c-18.1,7.5-37.7,8.4-52.7,8.2c-22-0.2-44.1-3.1-65.4-5.8c-18.8-2.4-38.3-4.9-57.5-5.6l0.1-3.3
				c19.4,0.7,38.9,3.2,57.8,5.7c21.3,2.7,43.3,5.6,65,5.8c14.7,0.2,33.9-0.6,51.5-8c3-1.2,5.9-2.6,8.8-3.9
				c15.2-6.9,29.7-13.4,47.6-4.4c8.2,4.1,14.8,9.2,20.7,13.6c14.8,11.3,25.5,19.5,49.9,4.8c4.3-2.6,8.3-5.2,11.8-7.5
				c19.4-12.7,30.1-19.8,49.8,8.1l0.1,0.1c14.5,20.5,26,36.8,52.7,38.3c45.7,2.6,92.9,0.5,138.6-1.5c12.3-0.5,24.9-1.1,37.3-1.6
				c9.3-0.3,18.7-0.7,28-1.1c16.9-0.7,34.4-1.4,51.7-1.9c21.7-0.6,34.9-0.9,49.9-18.5c4.1-4.8,7.3-10.6,10.5-16.3
				c4-7.3,8.2-14.8,14.4-20.5c20.4-18.8,37-5.4,54.7,8.8l0.4,0.3l-2,2.5l-0.4-0.3c-18-14.5-32.1-25.9-50.4-9
				c-5.8,5.3-9.8,12.6-13.7,19.7c-3.2,5.8-6.5,11.8-10.8,16.8c-16,18.7-30.4,19-52.3,19.6c-17.2,0.4-34.7,1.2-51.6,1.9
				c-9.3,0.4-18.7,0.8-28,1.1c-12.4,0.5-25,1-37.3,1.6C523.8,513.2,492.6,514.6,461.5,514.6z"/>
		</g>
		<g>
			<path d="M529.1,527c-16.2,0-33.6-0.3-53.1-1c-6.8-0.2-13.7-0.2-21-0.1c-14.1,0.1-28.7,0.2-42.1-1.9c-24.1-3.8-35.5-18.2-48.8-35
				c-1.6-2-3.2-4-4.9-6.1c-17.4-21.5-27-15.5-42.8-5.5c-6,3.8-12.9,8.1-21.1,11.5c-22.5,9.1-34.8,0.4-49-9.8
				c-5.4-3.9-11.1-7.9-17.7-11.2c-18.4-9.2-32.4-3.5-50,3.7c-1.4,0.6-2.9,1.2-4.4,1.8c-14.7,5.9-31.3,8.8-52.1,8.9
				c-22,0.1-44.2-2.3-65.6-4.8c-18.5-2.1-37.6-4.2-56.4-4.7l0.1-3.3c19,0.4,38.2,2.6,56.7,4.7c21.3,2.4,43.4,4.9,65.2,4.7
				c20.4-0.1,36.6-2.9,50.9-8.7c1.5-0.6,2.9-1.2,4.4-1.8c17.7-7.2,33-13.5,52.7-3.6c6.9,3.4,12.6,7.5,18.1,11.5
				c14,10,25,17.9,45.9,9.4c8-3.3,14.7-7.5,20.6-11.2c16.2-10.2,27.9-17.6,47.1,6.2c1.7,2.1,3.3,4.1,4.9,6.1
				c13.4,16.9,23.9,30.2,46.8,33.8c13.2,2.1,27.6,1.9,41.6,1.8c7-0.1,14.3-0.1,21.1,0.1c44.1,1.5,77.9,1.3,109.6-0.6
				c14.4-0.9,29.1-2.2,43.3-3.4c12.3-1.1,24.9-2.2,37.4-3.1c2-0.1,4-0.3,5.9-0.4c18.9-1.2,32.5-2,46.9-17
				c4.5-4.7,8.1-10.5,11.6-16.1c4.2-6.8,8.6-13.8,14.7-19.2c21.1-18.7,37.8-6.2,55.5,7l-1.9,2.6c-20.1-15-33.5-22.9-51.4-7.1
				c-5.7,5.1-10,11.9-14.1,18.4c-3.6,5.8-7.3,11.7-12.1,16.6c-15.3,15.9-29.5,16.8-49.1,18c-1.9,0.1-3.9,0.2-5.9,0.4
				c-12.5,0.8-25.1,2-37.3,3.1c-14.2,1.3-28.9,2.6-43.4,3.5C568,526.4,549.6,527,529.1,527z"/>
		</g>
		<g>
			<path d="M544.4,540.2c-34.6,0-69.1-2.7-102.9-5.4c-6-0.5-12-1-18-1.4c-28.5-2.2-41.4-15-59.9-35.7c-0.8-0.9-1.5-1.7-2.3-2.6
				c-6.7-7.6-13.6-15.5-23.6-16.2c-8.9-0.6-17.1,5-25.1,10.4c-4.5,3.1-8.7,6-13.1,7.9c-24.9,10.8-39.8,1.7-57-8.8
				c-5.2-3.2-10.6-6.5-16.7-9.5c-21.5-10.6-42.8-3.9-65.5,3.1c-13.4,4.2-27.3,8.5-41.3,9c-21.6,0.7-43.4-1.2-64.6-3
				c-17.9-1.6-36.3-3.2-54.5-3.2c0,0-0.1,0-0.1,0l0-3.3c0,0,0.1,0,0.1,0c18.3,0,36.9,1.6,54.8,3.2c21,1.8,42.8,3.8,64.2,3
				c13.6-0.5,27.2-4.7,40.5-8.8c22.3-6.9,45.3-14.1,67.9-2.9c6.2,3,11.6,6.4,16.9,9.6c17.1,10.4,30.6,18.7,54,8.6
				c4.1-1.8,8.2-4.6,12.6-7.6c8.4-5.8,17.1-11.7,27.1-11c11.3,0.8,19,9.6,25.8,17.3c0.8,0.9,1.5,1.7,2.3,2.6
				c18,20.1,30.5,32.5,57.8,34.6c6,0.5,12,0.9,18,1.4c52.3,4.2,106.3,8.4,159.7,2.4c10-1.1,20.1-2.6,29.9-4
				c14.7-2.1,29.9-4.3,45-5.4c17.6-1.3,27.5-3.7,39.8-14.8c5-4.5,9.1-10.1,13.1-15.6c4.5-6.2,9.2-12.7,15.3-17.6
				c20.6-16.8,36.4-8.4,56.5,5.3l-1.8,2.7c-19.5-13.3-33.6-20.9-52.6-5.5c-5.7,4.7-10.3,10.9-14.7,17c-4.1,5.6-8.3,11.4-13.5,16.1
				c-13,11.7-23.4,14.3-41.8,15.6c-15,1.1-30.1,3.3-44.7,5.4c-9.8,1.4-20,2.9-30,4C582.8,539.3,563.6,540.2,544.4,540.2z"/>
		</g>
		<g>
			<path d="M554.3,552.5c-28.4,0-56.4-3.3-85.5-6.7c-13.2-1.5-26.8-3.1-40.3-4.4c-28.1-2.6-42.1-14.1-61.9-32.7
				c-0.7-0.6-1.3-1.2-2-1.9c-7.7-7.3-15.6-14.8-26.2-15.5c-8.9-0.6-17.2,4.3-25.2,9c-4.6,2.7-9.3,5.4-14.1,7.2
				c-25.6,9.2-42.1,0.1-61.3-10.4c-5.6-3.1-11.4-6.3-17.7-9.1c-23.4-10.6-44.7-4.3-67.3,2.4c-12.7,3.8-25.8,7.7-39.6,8.5
				c-20.3,1.3-40.8,0.1-60.7-0.9c-17.2-0.9-35-1.9-52.5-1.3l-0.1-3.3c17.6-0.6,35.5,0.4,52.8,1.3c19.8,1.1,40.3,2.2,60.4,0.9
				c13.5-0.8,26.4-4.7,38.9-8.4c23.2-6.9,45-13.4,69.6-2.3c6.4,2.9,12.3,6.1,17.9,9.2c18.5,10.1,34.4,18.9,58.6,10.1
				c4.5-1.6,8.9-4.2,13.5-6.9c8.4-4.9,17.1-10,27.1-9.4c11.8,0.7,20.5,9,28.2,16.4c0.7,0.6,1.3,1.2,2,1.9
				c19.2,18.1,32.4,29.3,60,31.9c13.6,1.2,27.2,2.8,40.4,4.4c44.6,5.2,86.8,10.2,131.3,3.3c9.7-1.5,19.5-3.5,28.9-5.4
				c14.1-2.9,28.6-5.9,43.2-7.3c16.3-1.6,27-3.1,40.6-13.8c6.9-5.4,12.8-11.1,18.1-16c19.6-18.6,33.8-32,69.5-9.6l-1.7,2.8
				c-33.6-21-45.6-9.6-65.5,9.2c-5.3,5-11.3,10.7-18.3,16.2c-14,11.1-25.3,12.8-42.3,14.5c-14.4,1.4-28.8,4.3-42.8,7.2
				c-9.5,2-19.4,4-29.1,5.5C585.2,551.5,569.7,552.5,554.3,552.5z"/>
		</g>
		<g>
			<path d="M557.6,564.5c-26.9,0-53.3-4.5-79.1-8.8c-15.8-2.7-32.2-5.4-48.6-7.2c-24.4-2.6-39.4-14-56.8-27.1c-1.9-1.5-3.9-3-6-4.5
				c-21-15.7-33.4-11.1-50.6-4.8c-7.5,2.8-16,5.9-26.4,7.7c-22.7,4-39.6-4.8-57.6-14.2c-8.5-4.4-17.2-9-26.7-12.1
				c-22.5-7.4-41.9-1.6-62.4,4.6c-11.3,3.4-22.9,6.9-35.3,8.2c-19.3,2.1-39,1.8-58.1,1.5c-16.4-0.2-33.3-0.5-49.9,0.8l-0.2-3.2
				c16.7-1.3,33.7-1,50.2-0.8c19,0.3,38.6,0.5,57.7-1.5c12.1-1.3,23.6-4.8,34.7-8.1c21.1-6.3,40.9-12.3,64.4-4.6
				c9.7,3.2,18.6,7.8,27.2,12.3c17.4,9.1,33.9,17.7,55.5,13.9c10.1-1.8,18.4-4.9,25.8-7.6c17.4-6.4,31.2-11.5,53.6,5.2
				c2,1.5,4,3,6,4.5c17.7,13.4,31.7,24,55.2,26.5c16.5,1.7,32.9,4.5,48.8,7.2c39.1,6.6,76.1,12.8,115.5,5.5
				c10.5-1.9,21-4.8,31.2-7.6c12.9-3.5,26.3-7.1,39.7-9c2-0.3,4-0.5,5.9-0.8c13.8-1.8,24.7-3.1,37.3-11.4c7.6-5,14.3-10.2,20.1-14.8
				c21.3-16.8,36.7-28.9,72-8.9l-1.6,2.8c-33.5-19-47.4-8-68.4,8.6c-5.9,4.7-12.6,9.9-20.4,15c-13.2,8.6-24.5,10.1-38.7,11.9
				c-1.9,0.2-3.9,0.5-5.9,0.8c-13.3,1.8-26.5,5.4-39.3,8.9c-10.3,2.8-20.9,5.7-31.5,7.6C582.5,563.5,570,564.5,557.6,564.5z"/>
		</g>
		<g>
			<path d="M560.5,575.7c-24.1,0-47.2-5.3-71.2-10.8c-17-3.9-34.6-7.9-52.6-9.9c-24.8-2.7-40.7-12.3-60.9-24.5c-1.7-1-3.4-2-5.1-3.1
				c-10.8-6.5-21.6-12.2-34.5-11.3c-8.2,0.6-15.8,3.5-23.8,6.6c-7.4,2.8-15,5.8-23.1,6.7c-23.9,2.8-44-6.7-63.5-15.8
				c-8.8-4.1-18-8.4-27.5-11.6c-24.5-8.2-44.4-2.3-65.5,3.9c-10.1,3-20.5,6.1-31.8,7.8c-16.9,2.5-34.1,3-50.8,3.4
				c-16.5,0.4-33.5,0.9-50,3.3l-0.5-3.2c16.7-2.5,33.8-2.9,50.4-3.4c16.6-0.4,33.8-0.9,50.4-3.4c11.1-1.7,21.4-4.7,31.4-7.7
				c21.6-6.4,41.9-12.4,67.4-3.9c9.7,3.2,18.9,7.6,27.8,11.7c19.9,9.3,38.7,18.2,61.7,15.5c7.7-0.9,15.1-3.8,22.3-6.5
				c7.9-3.1,16.1-6.2,24.7-6.8c13.9-1,25.6,5.3,36.4,11.8c1.7,1,3.4,2.1,5.1,3.1c19.9,12,35.5,21.4,59.6,24c18.2,2,35.9,6,53,9.9
				c34.6,7.9,67.3,15.4,103.5,7c9.9-2.3,19.8-5.8,29.4-9.1c12.2-4.2,24.8-8.6,37.7-10.8c3.6-0.6,7-1.1,10.3-1.5
				c11.9-1.7,22.2-3.1,33.8-9.4c7.6-4.1,14.1-8.3,20.4-12.3c23.6-15.1,40.6-26,75.7-8.1l-1.5,2.9c-33.4-17.1-49-7.1-72.5,7.9
				c-6,3.9-12.9,8.3-20.5,12.4c-12.1,6.6-22.6,8.1-34.9,9.8c-3.3,0.5-6.7,0.9-10.2,1.5c-12.6,2.1-25.1,6.5-37.1,10.6
				c-9.7,3.4-19.6,6.8-29.7,9.2C582.7,574.6,571.5,575.7,560.5,575.7z"/>
		</g>
		<g>
			<path d="M561.6,587c-22.3,0-43-6.5-64.6-13.2c-14.7-4.6-29.9-9.4-45.7-11.9c-25.9-4.1-46.1-9.1-73-22.1
				c-11.2-5.5-23.9-11.7-37.8-11.5c-8.7,0.1-16.8,2.7-25.4,5.3c-6.9,2.1-13.9,4.4-21.3,5.2c-27,3.1-49.4-6.4-73.1-16.4
				c-8.5-3.6-17.4-7.3-26.4-10.4c-15.4-5.2-37.9-10.3-57.8-5.2c-6.2,1.6-12.1,4.1-18.2,6.7c-7.1,3-14.5,6.1-22.4,7.7
				c-16.1,3.4-32.8,4.6-48.9,5.8c-15.4,1.2-31.3,2.4-46.6,5.4l-0.6-3.2c15.5-3.1,31.5-4.3,47-5.4c16-1.2,32.5-2.4,48.5-5.8
				c7.7-1.6,14.9-4.6,21.8-7.6c6-2.5,12.2-5.1,18.7-6.8c20.7-5.3,43.8-0.1,59.7,5.3c9.1,3.1,18,6.8,26.6,10.5
				c23.3,9.8,45.3,19.1,71.5,16.2c7-0.8,14-3,20.7-5.1c8.4-2.6,17.1-5.4,26.3-5.5c14.7-0.2,27.8,6.2,39.3,11.8
				c26.5,12.9,46.5,17.8,72.1,21.8c16,2.5,31.4,7.3,46.2,12c29.7,9.3,57.8,18,90.1,9.7c10.8-2.8,21.2-7.3,31.3-11.6
				c10.7-4.6,21.7-9.4,33.3-12.1c6.2-1.5,12.2-2.3,18-3.1c9.7-1.3,18.9-2.6,28.4-6.7c8.2-3.5,15.3-7.1,22.3-10.7
				c24.8-12.6,44.4-22.6,79.3-6.8l-1.3,3c-33.4-15.1-51.5-6-76.5,6.7c-7,3.5-14.2,7.2-22.4,10.8c-9.9,4.3-19.7,5.6-29.2,6.9
				c-5.7,0.8-11.7,1.6-17.7,3c-11.3,2.7-22.2,7.4-32.8,12c-10.2,4.4-20.8,8.9-31.8,11.8C579.5,586,570.4,587,561.6,587z"/>
		</g>
		<g>
			<path d="M562.6,598c-21,0-40.1-7.6-60.1-15.6c-14.1-5.6-28.7-11.4-44.1-14.3c-2.9-0.5-5.8-1.1-8.7-1.6
				c-23.5-4.3-43.9-8-67.2-16.7c-14.2-5.3-27.1-9.6-41-9.3c-8.4,0.2-16.7,2.3-24.7,4.2c-7.6,1.8-15.4,3.8-23.4,4.2
				c-27.8,1.7-52.8-7.9-77.1-17.2c-9.1-3.5-18.5-7.1-27.9-10.1c-25.5-8.1-45.1-10.3-59.9-6.7c-6.3,1.5-12.4,4.3-18.8,7.2
				c-6.3,2.9-12.9,5.8-19.6,7.5c-15,3.7-30.5,5.7-45.5,7.5c-14.6,1.8-29.7,3.7-44.2,7.2l-0.8-3.2c14.7-3.6,29.8-5.5,44.5-7.3
				c14.9-1.9,30.3-3.8,45.1-7.5c6.5-1.6,12.9-4.5,19.1-7.3c6.3-2.8,12.8-5.8,19.4-7.4c15.4-3.7,35.5-1.5,61.6,6.8
				c9.6,3,19,6.6,28.1,10.2c25,9.6,48.6,18.7,75.7,17c7.8-0.5,15.4-2.3,22.8-4.2c8.2-2,16.7-4.1,25.4-4.3
				c14.5-0.4,27.7,4.1,42.3,9.5c23.1,8.6,43.3,12.3,66.7,16.6c2.9,0.5,5.7,1,8.7,1.6c15.7,2.9,30.4,8.8,44.7,14.5
				c27.2,10.9,53,21.1,83.7,11.5c10.1-3.2,19.7-8.3,29-13.2c9.9-5.3,20.2-10.7,31.2-13.9c7.4-2.1,15-3,22.3-3.9
				c8.2-1,16.7-2,24.9-4.8c7.9-2.7,15.1-5.5,22-8.2c27.5-10.8,49.2-19.3,83.8-5.6l-1.2,3c-33.4-13.3-54.6-5-81.5,5.6
				c-7,2.7-14.2,5.6-22.1,8.3c-8.5,2.9-17.2,3.9-25.5,4.9c-7.2,0.9-14.6,1.7-21.8,3.8c-10.7,3.1-20.8,8.5-30.6,13.7
				c-9.4,5-19.1,10.2-29.5,13.4C579.4,596.8,570.9,598,562.6,598z"/>
		</g>
		<g>
			<path d="M563.4,609.3c-20.3,0-38.7-9.2-56.6-18.2c-14.6-7.3-29.6-14.9-45.6-17.4l-6.1-1c-24.7-3.9-47.9-7.6-72.8-14.1
				c-22-5.8-39.4-3.9-59.6-1.7c-7.5,0.8-15.3,1.7-23.8,2.1c-30.6,1.7-58.8-8-86.1-17.4c-8.3-2.8-16.8-5.8-25.4-8.4
				c-19.9-6-42.6-12.2-61.5-9c-7.2,1.2-14.7,4.5-21.8,7.7c-5.6,2.5-11.3,5-17.1,6.6c-14.5,4.1-29.6,6.6-44.2,9.1
				c-14,2.3-28.5,4.8-42.4,8.6l-0.9-3.1c14.1-3.9,28.6-6.3,42.7-8.6c14.5-2.4,29.5-4.9,43.9-9c5.5-1.6,11.2-4.1,16.6-6.5
				c7.3-3.2,14.9-6.6,22.6-7.9c19.6-3.4,42.8,2.9,63,9.1c8.6,2.6,17.2,5.6,25.5,8.4c28.2,9.7,54.9,18.9,84.8,17.2
				c8.3-0.5,16.1-1.3,23.6-2.1c19.7-2.1,38.3-4.2,60.8,1.8c24.7,6.5,47.9,10.1,72.5,14l6.1,1c16.5,2.6,31.8,10.3,46.6,17.7
				c24.2,12.1,47,23.6,74.6,14.7c11.1-3.5,21-9.9,30.5-16.1c8.4-5.4,17.1-11,26.6-14.8c9.1-3.6,18.8-4.5,28.3-5.3
				c6.9-0.6,14-1.3,20.7-2.9c8.4-2.1,16.2-4.4,23.7-6.6c28.7-8.4,53.6-15.7,87.9-4l-1.1,3.1c-33.3-11.4-56.5-4.6-85.9,4.1
				c-7.6,2.2-15.4,4.5-23.8,6.6c-7,1.7-14.2,2.4-21.2,3c-9.7,0.9-18.8,1.7-27.4,5.1c-9.3,3.6-17.8,9.2-26.1,14.5
				c-9.7,6.3-19.8,12.8-31.3,16.5C576.8,608.4,570,609.3,563.4,609.3z"/>
		</g>
		<g>
			<path d="M564.2,620.9c-19.3,0-36.5-10.5-53.3-20.7c-13.8-8.4-28-17-43.1-19.7c-13-2.3-26.4-3.8-39.5-5.3
				c-14-1.6-28.4-3.2-42.5-5.8c-20.5-3.8-38.8-2.4-58.1-0.9c-9.2,0.7-18.7,1.4-28.6,1.6c-30.6,0.5-59.6-8.3-87.6-16.8
				c-8.5-2.6-17.4-5.3-26.1-7.7l-2.3-0.6c-18.3-5-41.1-11.2-59.9-8.6c-7.5,1.1-15.2,4.3-22.6,7.4c-5.2,2.2-10.5,4.4-15.7,5.9
				c-14.2,4.1-28.8,6.9-43,9.6c-13.7,2.6-27.8,5.3-41.4,9.1l-0.9-3.1c13.7-3.9,27.9-6.6,41.7-9.2c14.1-2.7,28.7-5.5,42.7-9.5
				c5-1.4,10.3-3.7,15.4-5.8c7.6-3.2,15.6-6.5,23.4-7.7c19.4-2.7,42.5,3.6,61.2,8.7l2.3,0.6c8.8,2.4,17.7,5.1,26.2,7.7
				c27.8,8.5,56.6,17.2,86.6,16.7c9.8-0.2,19.3-0.9,28.4-1.6c19.6-1.5,38-2.9,59,1c14,2.6,28.4,4.2,42.3,5.8
				c13.1,1.5,26.6,3,39.7,5.3c15.7,2.8,30.2,11.6,44.2,20.1c22.5,13.7,43.8,26.7,69.9,16.8c10.5-4,19.4-11,28-17.8
				c7.7-6.1,15.7-12.3,24.9-16.5c9.8-4.5,20.9-5.1,31.6-5.8c6-0.3,12.2-0.7,17.9-1.7c8.1-1.5,15.8-3.1,23.3-4.7
				c31.2-6.6,58.2-12.3,92.3-2.5l-0.9,3.1c-33.3-9.5-59.9-3.9-90.7,2.6c-7.5,1.6-15.2,3.2-23.3,4.7c-5.9,1.1-12.2,1.4-18.3,1.8
				c-10.4,0.6-21.2,1.2-30.4,5.5c-8.8,4-16.6,10.2-24.2,16.1c-8.8,6.9-17.9,14.1-28.9,18.2C577,619.8,570.5,620.9,564.2,620.9z"/>
		</g>
		<g>
			<path d="M565.2,633c-18.5,0-35.1-11.9-51.3-23.5c-12.9-9.3-26.3-18.8-40.2-21.7c-7.7-1.6-16.6-1.6-25.1-1.6
				c-6.2,0-12.7,0-18.7-0.6c-7.8-0.8-15.6-1.9-23.2-3c-5.8-0.8-11.8-1.7-17.7-2.4c-18.8-2.3-37.2-1.3-54.9-0.3
				c-11.1,0.6-22.6,1.2-34.3,1.1c-30-0.4-59.2-7.9-87.4-15.2c-8.6-2.2-17.6-4.5-26.4-6.6c-2-0.5-3.9-0.9-6-1.4
				c-17.9-4.3-38.1-9.1-55.6-7.3c-7.8,0.8-16,3.8-23.9,6.7c-5,1.8-10.1,3.7-15.1,5c-14.4,3.7-29.2,6.5-43.5,9.3
				c-13.7,2.6-27.8,5.3-41.5,8.8l-0.8-3.2c13.8-3.5,28-6.2,41.7-8.8c14.3-2.7,29-5.5,43.3-9.2c4.8-1.3,9.7-3,14.8-4.9
				c8.1-3,16.4-6,24.7-6.9c18-1.9,38.6,3,56.7,7.3c2,0.5,4,1,6,1.4c8.9,2.1,17.8,4.4,26.4,6.6c28,7.2,57,14.7,86.6,15.1
				c11.6,0.1,23-0.5,34.1-1.1c17.9-1,36.4-2,55.5,0.3c5.9,0.7,11.9,1.6,17.7,2.4c7.5,1.1,15.3,2.2,23,3c5.8,0.6,12.2,0.6,18.3,0.6
				c8.7,0,17.7,0,25.8,1.7c14.6,3.1,28.2,12.8,41.4,22.3c21.6,15.4,41.9,30,66.5,19.1c9.9-4.4,18-12,25.8-19.4
				c7.1-6.7,14.5-13.7,23.3-18.4c10.3-5.4,22.2-5.7,33.9-5.9c5.6-0.1,11-0.3,16.1-0.9c6.9-0.9,13.7-1.9,20.3-2.8
				c32.9-4.8,64-9.3,98.7-1.4l-0.7,3.2c-34.1-7.7-64.9-3.3-97.5,1.5c-6.6,1-13.5,2-20.4,2.8c-5.3,0.7-11,0.8-16.5,1
				c-11.2,0.3-22.8,0.5-32.4,5.6c-8.5,4.5-15.7,11.3-22.6,17.8c-8,7.6-16.2,15.4-26.7,20C577.2,631.8,571.1,633,565.2,633z"/>
		</g>
		<g>
			<path d="M566.7,645.1c-17.3,0-32.9-12.6-48.1-25c-10.8-8.8-22-17.8-33.5-22c-9.2-3.3-20.1-3.1-30.7-2.9c-4.9,0.1-9.6,0.2-14.1,0
				c-9.4-0.5-18.9-1.3-28.1-2c-5-0.4-10.2-0.9-15.3-1.2c-18.9-1.4-37.7-0.8-56-0.2c-11.3,0.4-23,0.8-34.6,0.7
				c-30.7-0.2-61.1-6.4-90.5-12.3c-7.3-1.5-14.9-3-22.3-4.4c-2.5-0.5-5.1-1-7.6-1.5c-17.4-3.4-35.4-6.9-52.5-6.3
				c-9.5,0.3-19.1,2.9-28.4,5.3c-4.7,1.2-9.5,2.5-14.3,3.5c-15.6,3.2-31.7,5.7-47.2,8.1c-14.2,2.2-28.8,4.5-43.1,7.3l-0.6-3.2
				c14.4-2.8,29-5.1,43.2-7.3c15.5-2.4,31.4-4.9,47-8.1c4.7-1,9.5-2.2,14.1-3.4c9.5-2.5,19.3-5,29.1-5.4c17.5-0.6,35.6,2.9,53.2,6.3
				c2.6,0.5,5.1,1,7.6,1.5c7.5,1.4,15,2.9,22.4,4.4c29.2,5.9,59.5,12,89.9,12.2c11.6,0.1,23.2-0.3,34.5-0.7
				c18.3-0.6,37.3-1.2,56.3,0.2c5.1,0.4,10.3,0.8,15.3,1.2c9.2,0.8,18.6,1.6,28,2c4.4,0.2,9,0.1,13.9,0c10.9-0.3,22.1-0.5,31.9,3
				c12.1,4.4,23.5,13.6,34.5,22.6c22.5,18.3,43.8,35.5,70.3,14.9c5.3-4.1,10.1-9.5,15.1-15.2c9.2-10.3,18.7-21,31.9-24.5
				c9.6-2.5,20.9-2.4,31.8-2.3c7,0.1,13.6,0.1,19.7-0.5l1.7-0.2c37.1-3.5,72.1-6.9,109.2-0.8l-0.5,3.2c-36.7-6-71.5-2.7-108.4,0.9
				l-1.7,0.2c-6.3,0.6-13.3,0.5-20,0.5c-10.7-0.1-21.8-0.2-31,2.2c-12.2,3.2-21.4,13.5-30.3,23.5c-4.9,5.6-10.1,11.3-15.6,15.6
				C583.7,642.2,575,645.1,566.7,645.1z"/>
		</g>
		<g>
			<path d="M567.4,659.1c-16.8,0-32.1-14-47-27.7c-10.5-9.6-21.3-19.5-32.1-23.7c-16.8-6.6-41.2-5.6-62.7-4.6
				c-9.6,0.4-18.7,0.8-26.7,0.5c-16.6-0.5-33.5-0.2-49.8,0.2c-13.6,0.3-27.7,0.6-41.6,0.4c-28.4-0.5-57.1-4.1-84.7-7.6
				c-7.1-0.9-14.5-1.8-21.7-2.7c-55.7-6.6-112.3,0-166.9,6.4c-11.1,1.3-22.6,2.7-33.9,3.9l-0.3-3.2c11.3-1.2,22.8-2.6,33.9-3.9
				c54.9-6.5,111.6-13.1,167.7-6.4c7.2,0.9,14.6,1.8,21.7,2.7c27.6,3.5,56.1,7.1,84.4,7.6c13.8,0.2,27.9-0.1,41.5-0.4
				c16.4-0.3,33.3-0.7,50-0.2c7.9,0.3,16.9-0.1,26.5-0.5c21.9-0.9,46.7-2,64.1,4.9c11.4,4.5,22.4,14.6,33.1,24.3
				c22,20.1,42.7,39,67.6,16.7c4.9-4.4,9.3-10.1,13.9-16.1c8.8-11.4,17.9-23.2,31.4-27c10.2-2.9,22.7-2.4,34.8-1.9
				c6.2,0.2,12.1,0.5,17.5,0.2l3.1-0.1c37.4-1.7,72.7-3.3,109.3,0.1l-0.3,3.2c-36.4-3.4-71.6-1.8-108.9-0.1l-3.1,0.1
				c-5.5,0.2-11.4,0-17.7-0.2c-11.8-0.5-24.1-0.9-33.8,1.8c-12.5,3.5-21.2,14.9-29.7,25.9c-4.7,6.1-9.2,11.9-14.3,16.5
				C583.6,656,575.4,659.1,567.4,659.1z"/>
		</g>
		<g>
			<path d="M568.1,674.2c-16.7,0-32-15.3-46.8-30.2c-10.8-10.8-21-21-31.3-25.3c-17.2-7.1-42.5-5.4-64.9-3.9
				c-9,0.6-17.6,1.2-25.1,1.2c-28.2-0.1-56.5-0.2-84.7-0.3c-103.3-0.5-210.1-0.9-315.2,0.5l0-3.3c105.1-1.4,212-0.9,315.3-0.5
				c28.2,0.1,56.5,0.2,84.7,0.3c7.4,0,15.9-0.5,24.9-1.2c22.7-1.5,48.5-3.3,66.3,4.2c10.9,4.5,21.3,15,32.4,26
				c14.4,14.4,29.2,29.2,44.5,29.2c0,0,0,0,0.1,0c7.5,0,14.5-3.5,21.6-10.6c4.6-4.6,8.7-10.6,13-16.9c8.6-12.5,17.4-25.5,31.5-29.7
				c10.7-3.2,24.8-2.3,37.2-1.6c5.5,0.3,10.8,0.7,15.5,0.6l5.5,0c35.3-0.2,71.7-0.3,107.6,0.1l0,3.3c-35.8-0.4-72.3-0.3-107.5-0.1
				l-5.5,0c-4.8,0-10.1-0.3-15.7-0.7c-12.7-0.8-25.9-1.6-36.1,1.4c-13,3.9-21.5,16.3-29.8,28.4c-4.4,6.4-8.6,12.5-13.4,17.4
				C584.3,670.4,576.5,674.2,568.1,674.2C568.1,674.2,568.1,674.2,568.1,674.2z"/>
		</g>
	</g>
</g>
</svg>
